<svg id="Layer_1" data-name="Layer 1" xmlns="http://www.w3.org/2000/svg" viewBox="0 0 600 151.55"><defs><style>.cls-1{fill:none;}.cls-2{fill:#fff;}.cls-3{fill:#0072ce;}.cls-4{fill:#002d72;}</style></defs><title>FZU-L-RGB-NEG</title><rect class="cls-1" width="600" height="151.55"/><polygon class="cls-2" points="246.59 110.01 278.15 55.19 248.75 55.19 251.7 42 301.83 42 271.37 96.81 301.76 96.81 301.76 110.01 246.59 110.01"/><path class="cls-2" d="M339.84,111.54c-18.9,0-31.11-12.34-31.11-31.44V42h16.9V81.19c0,10.12,5.31,16.17,14.21,16.17s14.31-6,14.31-16.17V42H371V80.1C371,99.2,358.74,111.54,339.84,111.54Z"/><polygon class="cls-2" points="195.65 110.01 195.65 42 244.26 42 241.47 55.19 212.23 55.19 212.23 73.55 237.41 73.55 234.57 86.2 212.23 86.2 212.23 110.01 195.65 110.01"/><path class="cls-2" d="M408.61,57.63h-2.48V42.35h8.63v2.11h-6.15v4.78h5.76v2.12h-5.76Z"/><path class="cls-2" d="M415.47,46.07h2.67l2.35,6.56a12.25,12.25,0,0,1,.72,2.63h.08a11.45,11.45,0,0,1,.34-1.39q.25-.82,2.66-7.8h2.65L422,59.17c-.9,2.4-2.4,3.61-4.5,3.61a6.9,6.9,0,0,1-1.58-.18v-2a5.31,5.31,0,0,0,1.26.13,2.6,2.6,0,0,0,2.5-2.06l.43-1.09Z"/><path class="cls-2" d="M436.9,57.63h-8.78V56.12L434,48h-5.49V46.07h8.25v1.72l-5.72,8h5.89Z"/><path class="cls-2" d="M439,43a1.38,1.38,0,0,1,.36-1,1.42,1.42,0,0,1,1-.35A1.25,1.25,0,0,1,441.74,43a1.26,1.26,0,0,1-1.38,1.35,1.38,1.38,0,0,1-1-.36A1.34,1.34,0,0,1,439,43Zm2.6,14.62h-2.46V46.07h2.46Z"/><path class="cls-2" d="M447.25,51.53l1.39-1.74,3.49-3.72H455l-4.66,5,4.95,6.59h-2.89l-3.71-5.07-1.35,1.11v4h-2.43V41.37h2.43V49.3l-.12,2.23Z"/><path class="cls-2" d="M464.26,57.63,463.77,56h-.08A4.63,4.63,0,0,1,462,57.46a5.21,5.21,0,0,1-2.17.38,3.63,3.63,0,0,1-2.66-.92,3.43,3.43,0,0,1-1-2.6,3.06,3.06,0,0,1,1.33-2.7,7.73,7.73,0,0,1,4-1l2-.06V50a2.33,2.33,0,0,0-.52-1.66,2.12,2.12,0,0,0-1.6-.55,5.46,5.46,0,0,0-1.71.27,13.29,13.29,0,0,0-1.56.61l-.8-1.75a8.56,8.56,0,0,1,2.06-.75,9.57,9.57,0,0,1,2.11-.26,5,5,0,0,1,3.33,1,3.79,3.79,0,0,1,1.13,3v7.78ZM460.6,56a3,3,0,0,0,2.15-.75,2.68,2.68,0,0,0,.81-2.09v-1l-1.48.07a5,5,0,0,0-2.53.58,1.74,1.74,0,0,0-.79,1.58,1.53,1.53,0,0,0,.46,1.2A2,2,0,0,0,460.6,56Zm-.75-11.3V44.4c.4-.49.81-1,1.23-1.63s.75-1.11,1-1.54h2.85v.22a21.88,21.88,0,0,1-1.63,1.65c-.72.67-1.33,1.19-1.82,1.56Z"/><path class="cls-2" d="M471.72,57.63h-2.46V41.37h2.46Z"/><path class="cls-2" d="M485.18,57.63h-2.47V50.52a3.09,3.09,0,0,0-.54-2,2,2,0,0,0-1.7-.66,2.73,2.73,0,0,0-2.28.92,5.06,5.06,0,0,0-.73,3.08v5.76H475V46.07h1.92l.35,1.52h.12a3.41,3.41,0,0,1,1.49-1.28,5,5,0,0,1,2.13-.45q4.16,0,4.16,4.24Z"/><path class="cls-2" d="M488.27,44.66V44.4c.4-.49.81-1,1.23-1.63s.75-1.11,1-1.54h2.85v.22a20.09,20.09,0,0,1-1.63,1.65,22.36,22.36,0,0,1-1.82,1.56Zm2.58,13H488.4V46.07h2.45Z"/><path class="cls-2" d="M508.08,57.63l-.34-1.51h-.13a3.41,3.41,0,0,1-1.46,1.26,4.83,4.83,0,0,1-2.16.46,4.25,4.25,0,0,1-3.13-1,4.35,4.35,0,0,1-1-3.17V46.07h2.48V53.2a3.09,3.09,0,0,0,.54,2,2.07,2.07,0,0,0,1.71.67,2.7,2.7,0,0,0,2.27-.93,5.13,5.13,0,0,0,.73-3.1V46.07H510V57.63Zm-4.67-13V44.4c.39-.49.8-1,1.23-1.63s.75-1.11,1-1.54h2.86v.22a21.88,21.88,0,0,1-1.63,1.65c-.72.67-1.33,1.19-1.82,1.56Z"/><path class="cls-2" d="M521.28,54.34a3,3,0,0,1-1.24,2.6,5.92,5.92,0,0,1-3.53.9,8.29,8.29,0,0,1-3.71-.7V55a9.05,9.05,0,0,0,3.79.94c1.52,0,2.27-.46,2.27-1.37a1.06,1.06,0,0,0-.25-.73,2.94,2.94,0,0,0-.82-.61,16,16,0,0,0-1.6-.71A7.55,7.55,0,0,1,513.48,51a2.88,2.88,0,0,1-.7-2,2.65,2.65,0,0,1,1.2-2.31,5.7,5.7,0,0,1,3.25-.82,9.23,9.23,0,0,1,3.86.83l-.79,1.85a8.55,8.55,0,0,0-3.15-.78q-1.95,0-1.95,1.11a1.1,1.1,0,0,0,.51.92,11.4,11.4,0,0,0,2.21,1,10.32,10.32,0,0,1,2.08,1,2.84,2.84,0,0,1,1.28,2.5Z"/><path class="cls-2" d="M528.48,55.86a5.94,5.94,0,0,0,1.8-.29v1.85a4.79,4.79,0,0,1-1,.3,7.23,7.23,0,0,1-1.33.12c-2.33,0-3.5-1.22-3.5-3.68V47.93h-1.57V46.84l1.69-.89.84-2.45h1.51v2.57h3.29v1.86h-3.29v6.19a1.72,1.72,0,0,0,.45,1.31A1.57,1.57,0,0,0,528.48,55.86Z"/><path class="cls-2" d="M540,57.63,539.53,56h-.08a4.69,4.69,0,0,1-1.68,1.44,5.26,5.26,0,0,1-2.18.38,3.65,3.65,0,0,1-2.66-.92,3.43,3.43,0,0,1-1-2.6,3.08,3.08,0,0,1,1.33-2.7,7.77,7.77,0,0,1,4.05-1l2-.06V50a2.37,2.37,0,0,0-.51-1.66,2.15,2.15,0,0,0-1.61-.55,5.36,5.36,0,0,0-1.7.27,12.79,12.79,0,0,0-1.57.61l-.8-1.75a8.56,8.56,0,0,1,2.06-.75,9.58,9.58,0,0,1,2.12-.26,5,5,0,0,1,3.33,1,3.78,3.78,0,0,1,1.12,3v7.78ZM536.36,56a3,3,0,0,0,2.15-.75,2.68,2.68,0,0,0,.81-2.09v-1l-1.48.07a5,5,0,0,0-2.53.58,1.76,1.76,0,0,0-.78,1.58,1.56,1.56,0,0,0,.45,1.2A2,2,0,0,0,536.36,56Z"/><path class="cls-2" d="M547.55,57.63l-4.39-11.56h2.59l2.36,6.72a14.17,14.17,0,0,1,.73,2.74h.08a18.88,18.88,0,0,1,.73-2.74L552,46.07h2.61l-4.41,11.56Z"/><path class="cls-2" d="M415.61,83.32l-1.52-4.24h-5.85l-1.49,4.24h-2.64L409.83,68h2.72l5.72,15.34Zm-2.18-6.4L412,72.76c-.11-.27-.25-.71-.44-1.31s-.31-1-.38-1.32a22.44,22.44,0,0,1-.83,2.81l-1.38,4Z"/><path class="cls-2" d="M422.61,77.22,424,75.48l3.49-3.72h2.83l-4.65,5,4.94,6.59h-2.88L424,78.25l-1.35,1.11v4h-2.44V67.06h2.44V75l-.13,2.23Z"/><path class="cls-2" d="M439.62,83.32l-.49-1.61H439a4.69,4.69,0,0,1-1.68,1.44,5.38,5.38,0,0,1-2.17.38,3.72,3.72,0,0,1-2.67-.92,3.46,3.46,0,0,1-.95-2.6,3.06,3.06,0,0,1,1.33-2.7,7.54,7.54,0,0,1,4-1l2-.06v-.62a2.33,2.33,0,0,0-.52-1.66,2.12,2.12,0,0,0-1.6-.55,5.71,5.71,0,0,0-1.71.26,14.23,14.23,0,0,0-1.57.62l-.79-1.76a8.82,8.82,0,0,1,2.06-.74,9.5,9.5,0,0,1,2.11-.26,5,5,0,0,1,3.33,1,3.76,3.76,0,0,1,1.12,3v7.79ZM436,81.65a3,3,0,0,0,2.15-.75,2.7,2.7,0,0,0,.81-2.09v-1l-1.49.07a5,5,0,0,0-2.52.58,1.74,1.74,0,0,0-.79,1.58,1.55,1.55,0,0,0,.46,1.2A2,2,0,0,0,436,81.65Z"/><path class="cls-2" d="M448.61,83.53A4,4,0,0,1,445.23,82a7,7,0,0,1-1.21-4.4,7,7,0,0,1,1.23-4.42,4.06,4.06,0,0,1,3.4-1.59,4,4,0,0,1,3.47,1.68h.13a14.37,14.37,0,0,1-.18-2V67.06h2.47V83.32h-1.93l-.42-1.51h-.12A3.93,3.93,0,0,1,448.61,83.53Zm.66-2a2.65,2.65,0,0,0,2.2-.86,4.43,4.43,0,0,0,.72-2.76v-.35a5.12,5.12,0,0,0-.72-3.1,2.63,2.63,0,0,0-2.22-.92,2.26,2.26,0,0,0-2,1,6.72,6.72,0,0,0,0,5.93A2.3,2.3,0,0,0,449.27,81.55Z"/><path class="cls-2" d="M463,83.53A5.58,5.58,0,0,1,458.76,82a6,6,0,0,1-1.52-4.33,6.57,6.57,0,0,1,1.41-4.46,4.87,4.87,0,0,1,3.88-1.62,4.74,4.74,0,0,1,3.61,1.39,5.3,5.3,0,0,1,1.33,3.83V78.1h-7.7a3.71,3.71,0,0,0,.91,2.58,3.13,3.13,0,0,0,2.41.91,8.88,8.88,0,0,0,1.91-.2,10.12,10.12,0,0,0,1.9-.64v2a7.47,7.47,0,0,1-1.82.6A11.11,11.11,0,0,1,463,83.53Zm-.45-10.12a2.49,2.49,0,0,0-1.88.74,3.56,3.56,0,0,0-.84,2.17h5.25a3.25,3.25,0,0,0-.69-2.17A2.37,2.37,0,0,0,462.53,73.41Z"/><path class="cls-2" d="M479.94,83.32h-2.46V76.19a3.21,3.21,0,0,0-.51-2,1.84,1.84,0,0,0-1.56-.65,2.41,2.41,0,0,0-2.09.92,5.48,5.48,0,0,0-.66,3.08v5.76H470.2V71.76h1.92l.35,1.52h.13A3.2,3.2,0,0,1,474,72a4.49,4.49,0,0,1,2-.45c1.78,0,3,.61,3.54,1.82h.16A3.55,3.55,0,0,1,481.15,72a4.58,4.58,0,0,1,2.13-.48,3.86,3.86,0,0,1,3,1,4.57,4.57,0,0,1,.95,3.19v7.53h-2.46V76.19a3.28,3.28,0,0,0-.5-2,1.9,1.9,0,0,0-1.58-.65,2.44,2.44,0,0,0-2.09.89,4.64,4.64,0,0,0-.67,2.75Z"/><path class="cls-2" d="M490.32,68.7a1.38,1.38,0,0,1,.36-1,1.43,1.43,0,0,1,1-.35,1.41,1.41,0,0,1,1,.35,1.38,1.38,0,0,1,.36,1,1.31,1.31,0,0,1-.36,1,1.34,1.34,0,0,1-1,.37,1.35,1.35,0,0,1-1-.37A1.31,1.31,0,0,1,490.32,68.7Zm2.6,14.62h-2.46V71.76h2.46Z"/><path class="cls-2" d="M501.32,83.53A5.6,5.6,0,0,1,497.1,82a6,6,0,0,1-1.52-4.33A6.57,6.57,0,0,1,497,73.17a4.88,4.88,0,0,1,3.88-1.62,4.76,4.76,0,0,1,3.62,1.39,5.34,5.34,0,0,1,1.33,3.83V78.1h-7.71a3.81,3.81,0,0,0,.91,2.58,3.14,3.14,0,0,0,2.41.91,8.82,8.82,0,0,0,1.91-.2,10.12,10.12,0,0,0,1.9-.64v2a7.47,7.47,0,0,1-1.82.6A11,11,0,0,1,501.32,83.53Zm-.45-10.12a2.49,2.49,0,0,0-1.88.74,3.56,3.56,0,0,0-.84,2.17h5.25a3.15,3.15,0,0,0-.69-2.17A2.37,2.37,0,0,0,500.87,73.41Z"/><path class="cls-2" d="M516.8,83.32l-4.39-11.56H515l2.36,6.72a14,14,0,0,1,.73,2.74h.08a18.88,18.88,0,0,1,.73-2.74l2.36-6.72h2.61l-4.41,11.56Z"/><path class="cls-2" d="M530.51,83.53A5.58,5.58,0,0,1,526.29,82a6,6,0,0,1-1.52-4.33,6.57,6.57,0,0,1,1.41-4.46,4.87,4.87,0,0,1,3.88-1.62,4.74,4.74,0,0,1,3.61,1.39A5.3,5.3,0,0,1,535,76.77V78.1h-7.7a3.71,3.71,0,0,0,.91,2.58,3.13,3.13,0,0,0,2.41.91,8.88,8.88,0,0,0,1.91-.2,10.12,10.12,0,0,0,1.9-.64v2a7.47,7.47,0,0,1-1.82.6A11.11,11.11,0,0,1,530.51,83.53Zm3.6-16.61v.28c-.87.92-1.49,1.59-1.85,2a8.83,8.83,0,0,0-.82,1.13h-2.72a21.73,21.73,0,0,0-2.66-3.15v-.28h1.66a12.93,12.93,0,0,1,2.35,1.91,13.19,13.19,0,0,1,2.38-1.91Zm-4.05,6.49a2.49,2.49,0,0,0-1.88.74,3.56,3.56,0,0,0-.84,2.17h5.25a3.25,3.25,0,0,0-.69-2.17A2.37,2.37,0,0,0,530.06,73.41Z"/><path class="cls-2" d="M541.82,83.53A4,4,0,0,1,538.45,82a7,7,0,0,1-1.21-4.4,7.1,7.1,0,0,1,1.22-4.42,4.07,4.07,0,0,1,3.41-1.59,4,4,0,0,1,3.47,1.68h.12a14.07,14.07,0,0,1-.17-2V67.06h2.46V83.32h-1.92l-.43-1.51h-.11A3.94,3.94,0,0,1,541.82,83.53Zm.66-2a2.68,2.68,0,0,0,2.21-.86,4.44,4.44,0,0,0,.71-2.76v-.35a5.2,5.2,0,0,0-.71-3.1,2.65,2.65,0,0,0-2.23-.92,2.25,2.25,0,0,0-2,1,6.76,6.76,0,0,0,0,5.93A2.32,2.32,0,0,0,542.48,81.55Z"/><path class="cls-2" d="M412.63,95.65a4.1,4.1,0,0,0-3.38,1.53,6.46,6.46,0,0,0-1.24,4.21,6.56,6.56,0,0,0,1.19,4.25,4.16,4.16,0,0,0,3.43,1.45,8.88,8.88,0,0,0,1.88-.2c.61-.13,1.24-.29,1.9-.49v2.14a11.56,11.56,0,0,1-4.08.68,6.51,6.51,0,0,1-5.15-2,8.52,8.52,0,0,1-1.8-5.82,9.41,9.41,0,0,1,.87-4.17,6.12,6.12,0,0,1,2.53-2.74,7.55,7.55,0,0,1,3.87-.95,9.56,9.56,0,0,1,4.33,1l-.9,2.08a13.15,13.15,0,0,0-1.63-.64A5.78,5.78,0,0,0,412.63,95.65Zm3.81-6.58v.29q-1.32,1.36-1.86,2a9.59,9.59,0,0,0-.82,1.13H411a21,21,0,0,0-2.65-3.14v-.29H410A12.61,12.61,0,0,1,412.39,91a12.88,12.88,0,0,1,2.39-1.92Z"/><path class="cls-2" d="M424.17,109.22a5.64,5.64,0,0,1-4.22-1.57,6,6,0,0,1-1.52-4.34,6.54,6.54,0,0,1,1.41-4.45,4.88,4.88,0,0,1,3.88-1.62,4.76,4.76,0,0,1,3.62,1.39,5.34,5.34,0,0,1,1.33,3.83v1.32H421a3.84,3.84,0,0,0,.91,2.59,3.18,3.18,0,0,0,2.41.91,8.82,8.82,0,0,0,1.91-.2,10.12,10.12,0,0,0,1.9-.64v2a7.5,7.5,0,0,1-1.82.61A11,11,0,0,1,424.17,109.22Zm-.45-10.12a2.49,2.49,0,0,0-1.88.74A3.56,3.56,0,0,0,421,102h5.25a3.15,3.15,0,0,0-.69-2.17A2.37,2.37,0,0,0,423.72,99.1Z"/><path class="cls-2" d="M439.23,105.72a3,3,0,0,1-1.23,2.59,5.88,5.88,0,0,1-3.54.91,8.32,8.32,0,0,1-3.71-.7V106.4a9.21,9.21,0,0,0,3.8.94c1.51,0,2.26-.46,2.26-1.37a1.06,1.06,0,0,0-.25-.73,2.8,2.8,0,0,0-.82-.61,14,14,0,0,0-1.6-.71,7.39,7.39,0,0,1-2.7-1.55,2.85,2.85,0,0,1-.71-2,2.64,2.64,0,0,1,1.2-2.3,5.62,5.62,0,0,1,3.25-.82,9.23,9.23,0,0,1,3.86.82l-.79,1.85a8.71,8.71,0,0,0-3.15-.77c-1.3,0-1.94.37-1.94,1.11a1.1,1.1,0,0,0,.5.92,11,11,0,0,0,2.21,1,9.74,9.74,0,0,1,2.08,1,2.94,2.94,0,0,1,1,1.06A3.06,3.06,0,0,1,439.23,105.72Z"/><path class="cls-2" d="M444.16,102.91l1.39-1.74,3.5-3.72h2.83l-4.65,5,4.94,6.6h-2.88l-3.72-5.07-1.34,1.11v4h-2.44V92.74h2.44v7.94l-.13,2.23Z"/><path class="cls-2" d="M458.49,109.22a5.65,5.65,0,0,1-4.22-1.57,6,6,0,0,1-1.52-4.34,6.5,6.5,0,0,1,1.42-4.45A4.86,4.86,0,0,1,458,97.24a4.75,4.75,0,0,1,3.62,1.39,5.3,5.3,0,0,1,1.33,3.83v1.32h-7.71a3.84,3.84,0,0,0,.91,2.59,3.19,3.19,0,0,0,2.42.91,8.88,8.88,0,0,0,1.91-.2,9.81,9.81,0,0,0,1.89-.64v2a7.36,7.36,0,0,1-1.82.61A11,11,0,0,1,458.49,109.22ZM458,99.1a2.47,2.47,0,0,0-1.87.74,3.56,3.56,0,0,0-.84,2.17h5.24a3.15,3.15,0,0,0-.69-2.17A2.36,2.36,0,0,0,458,99.1ZM456.48,96v-.26c.39-.49.8-1,1.22-1.64a18.2,18.2,0,0,0,1-1.53h2.86v.22c-.37.42-.91,1-1.63,1.64A22.49,22.49,0,0,1,458.11,96Z"/><path class="cls-2" d="M477.21,97.24a5.93,5.93,0,0,1,1.22.1l-.24,2.29a4.86,4.86,0,0,0-1.09-.12,3.16,3.16,0,0,0-2.39,1,3.47,3.47,0,0,0-.91,2.5v6h-2.46V97.45h1.92l.33,2h.12a4.66,4.66,0,0,1,1.5-1.64A3.54,3.54,0,0,1,477.21,97.24Z"/><path class="cls-2" d="M485.44,109.22a5.62,5.62,0,0,1-4.22-1.57,6,6,0,0,1-1.52-4.34,6.54,6.54,0,0,1,1.41-4.45A4.87,4.87,0,0,1,485,97.24a4.78,4.78,0,0,1,3.62,1.39,5.34,5.34,0,0,1,1.32,3.83v1.32h-7.7a3.79,3.79,0,0,0,.91,2.59,3.17,3.17,0,0,0,2.41.91,8.88,8.88,0,0,0,1.91-.2,10.12,10.12,0,0,0,1.9-.64v2a7.5,7.5,0,0,1-1.82.61A11,11,0,0,1,485.44,109.22ZM485,99.1a2.49,2.49,0,0,0-1.88.74,3.56,3.56,0,0,0-.84,2.17h5.25a3.25,3.25,0,0,0-.69-2.17A2.37,2.37,0,0,0,485,99.1Z"/><path class="cls-2" d="M498.53,109.22a4.05,4.05,0,0,1-3.41-1.58H495c.1,1,.15,1.57.15,1.78v4.73h-2.46V97.45h2c.05.21.17.73.34,1.55h.13a3.84,3.84,0,0,1,3.45-1.76,4,4,0,0,1,3.37,1.57,8.58,8.58,0,0,1,0,8.82A4,4,0,0,1,498.53,109.22Zm-.6-10a2.55,2.55,0,0,0-2.14.85,4.45,4.45,0,0,0-.67,2.74v.37a5.38,5.38,0,0,0,.67,3.06,2.47,2.47,0,0,0,2.18.94,2.24,2.24,0,0,0,2-1,5.41,5.41,0,0,0,.69-3,5.21,5.21,0,0,0-.69-3A2.27,2.27,0,0,0,497.93,99.25Z"/><path class="cls-2" d="M514.05,109l-.34-1.52h-.13a3.44,3.44,0,0,1-1.46,1.27,4.82,4.82,0,0,1-2.15.46,4.22,4.22,0,0,1-3.14-1,4.31,4.31,0,0,1-1-3.16V97.45h2.48v7.13a3,3,0,0,0,.55,2,2.07,2.07,0,0,0,1.7.66,2.72,2.72,0,0,0,2.27-.92,5.06,5.06,0,0,0,.73-3.1V97.45H516V109Z"/><path class="cls-2" d="M525.19,97.24a4,4,0,0,1,3.38,1.57,8.66,8.66,0,0,1,0,8.83,4.46,4.46,0,0,1-6.81,0h-.16l-.45,1.37h-1.84V92.74h2.45v3.87c0,.29,0,.71,0,1.28s-.05.92-.06,1.07h.1A3.91,3.91,0,0,1,525.19,97.24Zm-.63,2a2.5,2.5,0,0,0-2.14.87,5.07,5.07,0,0,0-.68,2.92v.17a5.46,5.46,0,0,0,.67,3.06,2.5,2.5,0,0,0,2.19.94,2.21,2.21,0,0,0,2-1,5.5,5.5,0,0,0,.67-3C527.25,100.56,526.36,99.25,524.56,99.25Z"/><path class="cls-2" d="M535,109h-2.46V92.74H535Z"/><path class="cls-2" d="M538.17,94.39a1.38,1.38,0,0,1,.36-1,1.4,1.4,0,0,1,1-.35,1.24,1.24,0,0,1,1.37,1.37,1.33,1.33,0,0,1-.36,1,1.37,1.37,0,0,1-1,.36,1.4,1.4,0,0,1-1-.36A1.33,1.33,0,0,1,538.17,94.39Zm2.6,14.62h-2.45V97.45h2.45Z"/><path class="cls-2" d="M546.45,102.91l1.39-1.74,3.49-3.72h2.83l-4.65,5,4.94,6.6h-2.88l-3.71-5.07-1.35,1.11v4h-2.44V92.74h2.44v7.94l-.13,2.23Z"/><path class="cls-2" d="M555.36,97.45H558l2.36,6.55a13.05,13.05,0,0,1,.71,2.64h.08a10.14,10.14,0,0,1,.35-1.4c.16-.55,1.05-3.14,2.65-7.79h2.66l-5,13.1q-1.35,3.6-4.49,3.6a7.52,7.52,0,0,1-1.59-.17v-2a5.36,5.36,0,0,0,1.26.13,2.59,2.59,0,0,0,2.5-2.06L560,109Z"/><path class="cls-2" d="M155.66,89.45a113.86,113.86,0,0,0-6.4-12.23l-1.14-1.91a114.15,114.15,0,0,0,7.54-14.1,71.59,71.59,0,0,0,5.9-19.67c1-8.17-.49-14.59-4.46-19.08S147,15.73,138.82,15.73h-.12a71.82,71.82,0,0,0-20.25,3.49,117.73,117.73,0,0,0-21,8.82l-2.8-1.41a118,118,0,0,0-18.28-7.41,71.87,71.87,0,0,0-20.25-3.49H56c-8.17,0-14.32,2.26-18.28,6.73s-5.48,10.91-4.46,19.08a71.59,71.59,0,0,0,5.9,19.67,115.42,115.42,0,0,0,7.53,14.1l-1.14,1.91a112.89,112.89,0,0,0-6.39,12.23,71.65,71.65,0,0,0-5.9,19.68c-1,8.17.48,14.59,4.46,19.07s10.11,6.74,18.27,6.74h.13a72.23,72.23,0,0,0,20.25-3.49,119.15,119.15,0,0,0,21-8.83l2.8,1.41a117.25,117.25,0,0,0,18.28,7.42,72.18,72.18,0,0,0,20.25,3.49h.12c8.17,0,14.32-2.27,18.28-6.73s5.48-10.91,4.46-19.08A71.65,71.65,0,0,0,155.66,89.45ZM121,37.67a64.4,64.4,0,0,1,12.39-2.26c.56,0,1.09-.06,1.57-.06a6.12,6.12,0,0,1,2.56.37,5.82,5.82,0,0,1-.11,2.49,65.52,65.52,0,0,1-4,13.5c-.41,1-.86,2-1.32,3-2.83-3-5.79-5.91-8.83-8.6-2.55-2.26-5.24-4.46-8-6.57C117.21,38.84,119.13,38.2,121,37.67Zm-63.77-2a6.08,6.08,0,0,1,2.56-.37q.72,0,1.56.06a64.5,64.5,0,0,1,12.4,2.26c1.9.53,3.82,1.16,5.75,1.85-2.77,2.1-5.46,4.29-8,6.57-3,2.69-6,5.58-8.83,8.6-.47-1-.91-2-1.33-3a66.81,66.81,0,0,1-4-13.5A5.9,5.9,0,0,1,57.27,35.72ZM55.74,110.6l-.82,0a4.76,4.76,0,0,1-1.67-.22c-.1-.26-.38-1.34.19-4.13a63.86,63.86,0,0,1,3.74-12c.4-1,.84-1.95,1.29-2.93a136.18,136.18,0,0,0,13,13.27c.85.75,1.73,1.51,2.64,2.27-1.52.52-3,1-4.54,1.43A65.6,65.6,0,0,1,55.74,110.6Zm85.84-.19a4.76,4.76,0,0,1-1.67.22l-.82,0a65.67,65.67,0,0,1-13.88-2.32c-1.49-.42-3-.9-4.54-1.42.9-.76,1.78-1.51,2.65-2.28a135,135,0,0,0,13-13.27c.46,1,.9,2,1.3,2.93a63.86,63.86,0,0,1,3.74,12C142,109.07,141.68,110.15,141.58,110.41Z"/><path class="cls-3" d="M153.34,25.79c-3-3.36-7.9-5.06-14.63-5A67,67,0,0,0,119.93,24a115.39,115.39,0,0,0-22.52,9.77q-3.81,2.15-7.52,4.57a130.66,130.66,0,0,0-15,11.49,127,127,0,0,0-9.91,9.78c.27.5.54,1,.82,1.5.92,1.63,1.93,3.3,3,5A106.14,106.14,0,0,1,97.41,42.27c2.47-1.41,5-2.72,7.53-3.91a95.93,95.93,0,0,1,14.74-5.53A69.43,69.43,0,0,1,133,30.41c6.93-.56,10.71,1.57,9.35,8.74a71,71,0,0,1-4.28,14.49,94.31,94.31,0,0,1-4.83,9.85c-1.24,2.22-2.59,4.41-4,6.56a107.79,107.79,0,0,1-18.09,20.8,107.19,107.19,0,0,1-13.75,10.31,103.89,103.89,0,0,1-13.28,7.15A93.51,93.51,0,0,1,71,113.11a70.14,70.14,0,0,1-14.89,2.5c-7.29.5-8.94-3.51-7.56-10.33a69,69,0,0,1,4-13c.77-1.84,1.6-3.67,2.51-5.48-.46-.58-.92-1.16-1.36-1.75-1.32-1.73-2.6-3.5-3.82-5.28a108.83,108.83,0,0,0-6.11,11.69,66.76,66.76,0,0,0-5.51,18.26c-.83,6.67.26,11.76,3.24,15.12s7.9,5.06,14.62,5a66.69,66.69,0,0,0,18.79-3.26,115.65,115.65,0,0,0,22.51-9.77,130.53,130.53,0,0,0,13.29-8.57q4.81-3.53,9.29-7.49A131.57,131.57,0,0,0,137.3,82.16q2.55-3.36,4.85-6.83a112.49,112.49,0,0,0,8.92-16.16,67,67,0,0,0,5.51-18.25C157.41,34.24,156.32,29.15,153.34,25.79Z"/><path class="cls-4" d="M151.07,91.49A108.83,108.83,0,0,0,145,79.8c-1.23,1.78-2.5,3.55-3.82,5.28-.45.59-.9,1.17-1.36,1.75q1.35,2.72,2.51,5.48a69,69,0,0,1,4,13c1.38,6.82-.27,10.83-7.56,10.33a70.14,70.14,0,0,1-14.89-2.5c-2.67-.74-5.34-1.63-8-2.65-.77.59-1.54,1.17-2.32,1.74-3.58,2.63-7.31,5.09-11.12,7.35a112.48,112.48,0,0,0,17.5,7.1,66.63,66.63,0,0,0,18.78,3.26c6.73,0,11.65-1.67,14.63-5s4.07-8.45,3.24-15.12A67.11,67.11,0,0,0,151.07,91.49Z"/><path class="cls-4" d="M129.9,59.63A128.8,128.8,0,0,0,120,49.85a127.63,127.63,0,0,0-10.4-8.29c-.87.38-1.73.76-2.6,1.17q-2.42,1.14-4.82,2.43a107.17,107.17,0,0,1,13.17,9.94,108.23,108.23,0,0,1,10.73,11c1.08-1.67,2.09-3.34,3-5C129.36,60.63,129.63,60.13,129.9,59.63Z"/><path class="cls-4" d="M43.76,59.17a112.49,112.49,0,0,0,8.92,16.16q2.3,3.47,4.85,6.83a131,131,0,0,0,17.31,18.66c1.6,1.42,3.24,2.79,4.91,4.13.8-.34,1.6-.68,2.41-1A100.32,100.32,0,0,0,93,98.21a107,107,0,0,1-9.33-7.36,108.18,108.18,0,0,1-18.1-20.8c-1.43-2.15-2.78-4.34-4-6.56a92.27,92.27,0,0,1-4.82-9.85,71,71,0,0,1-4.28-14.49c-1.37-7.17,2.42-9.3,9.35-8.74a69.43,69.43,0,0,1,13.36,2.42,94.14,94.14,0,0,1,9.49,3.25c.86-.6,1.73-1.18,2.6-1.76,1.69-1.1,3.42-2.17,5.16-3.2A111.9,111.9,0,0,0,74.9,24a67.1,67.1,0,0,0-18.79-3.27c-6.72,0-11.64,1.68-14.62,5s-4.07,8.45-3.24,15.13A66.6,66.6,0,0,0,43.76,59.17Z"/><path class="cls-4" d="M97.41,55.71a16.43,16.43,0,1,0,16.43,16.42A16.42,16.42,0,0,0,97.41,55.71ZM103,73.41a6.47,6.47,0,1,1,6.47-6.47A6.46,6.46,0,0,1,103,73.41Z"/></svg>