<svg id="Layer_1" data-name="Layer 1" xmlns="http://www.w3.org/2000/svg" viewBox="0 0 600 140.08"><defs><style>.cls-1{fill:none;}.cls-2{fill:#fff;}.cls-3{fill:#0072ce;}.cls-4{fill:#002d72;}</style></defs><title>FZU-L-EN-RGB-NEG</title><rect class="cls-1" width="600" height="140.08"/><path class="cls-2" d="M375.38,53.27V39.14h2.31V53.27Z"/><path class="cls-2" d="M390.4,53.27h-2.28V46.7a2.92,2.92,0,0,0-.5-1.85,1.94,1.94,0,0,0-1.58-.6,2.52,2.52,0,0,0-2.11.85,4.69,4.69,0,0,0-.67,2.85v5.32H381V42.58h1.78l.32,1.41h.12a3.11,3.11,0,0,1,1.37-1.18,4.55,4.55,0,0,1,2-.42c2.56,0,3.85,1.3,3.85,3.91Z"/><path class="cls-2" d="M400.71,50.23a2.8,2.8,0,0,1-1.14,2.4,5.42,5.42,0,0,1-3.26.83,7.72,7.72,0,0,1-3.43-.64v-2a8.51,8.51,0,0,0,3.51.86c1.39,0,2.09-.42,2.09-1.26a1,1,0,0,0-.23-.68,2.86,2.86,0,0,0-.76-.56,13.67,13.67,0,0,0-1.48-.65,7.05,7.05,0,0,1-2.5-1.43,2.69,2.69,0,0,1-.65-1.86,2.45,2.45,0,0,1,1.1-2.13,5.24,5.24,0,0,1,3-.76,8.67,8.67,0,0,1,3.57.76l-.73,1.71a8.11,8.11,0,0,0-2.91-.71q-1.8,0-1.8,1a1,1,0,0,0,.47.85,9.9,9.9,0,0,0,2,1,9.1,9.1,0,0,1,1.93.94,2.8,2.8,0,0,1,.88,1A2.75,2.75,0,0,1,400.71,50.23Z"/><path class="cls-2" d="M407.37,51.63a5.58,5.58,0,0,0,1.66-.26v1.71a4.26,4.26,0,0,1-1,.27,6.12,6.12,0,0,1-1.23.11q-3.22,0-3.23-3.4V44.3h-1.45v-1l1.56-.83.77-2.26h1.4v2.37h3.05V44.3h-3.05V50a1.63,1.63,0,0,0,.41,1.22A1.52,1.52,0,0,0,407.37,51.63Z"/><path class="cls-2" d="M410.87,39.75a1.29,1.29,0,0,1,.34-.94,1.33,1.33,0,0,1,1-.32,1.15,1.15,0,0,1,1.27,1.26,1.27,1.27,0,0,1-.34.92,1.26,1.26,0,0,1-.93.33,1.29,1.29,0,0,1-1-.33A1.27,1.27,0,0,1,410.87,39.75Zm2.41,13.52H411V42.58h2.27Z"/><path class="cls-2" d="M420.41,51.63a5.58,5.58,0,0,0,1.66-.26v1.71a4.26,4.26,0,0,1-1,.27,6.12,6.12,0,0,1-1.23.11q-3.22,0-3.23-3.4V44.3h-1.46v-1l1.57-.83.77-2.26h1.4v2.37H422V44.3h-3.05V50a1.63,1.63,0,0,0,.41,1.22A1.52,1.52,0,0,0,420.41,51.63Z"/><path class="cls-2" d="M431.58,53.27l-.32-1.4h-.12A3.11,3.11,0,0,1,429.79,53a4.51,4.51,0,0,1-2,.42,4,4,0,0,1-2.9-1,4,4,0,0,1-1-2.93v-7h2.29v6.59a2.81,2.81,0,0,0,.51,1.84,1.91,1.91,0,0,0,1.57.62,2.49,2.49,0,0,0,2.1-.86,4.67,4.67,0,0,0,.68-2.86V42.58h2.28V53.27Z"/><path class="cls-2" d="M440.5,51.63a5.63,5.63,0,0,0,1.66-.26v1.71a4.26,4.26,0,0,1-1,.27,6.25,6.25,0,0,1-1.23.11q-3.22,0-3.23-3.4V44.3h-1.46v-1l1.57-.83.77-2.26H439v2.37h3V44.3h-3V50a1.63,1.63,0,0,0,.41,1.22A1.51,1.51,0,0,0,440.5,51.63Z"/><path class="cls-2" d="M448.76,53.46a5.18,5.18,0,0,1-3.9-1.45,5.55,5.55,0,0,1-1.4-4,6,6,0,0,1,1.3-4.11,4.51,4.51,0,0,1,3.59-1.5,4.39,4.39,0,0,1,3.34,1.29,4.88,4.88,0,0,1,1.23,3.53v1.23H445.8a3.49,3.49,0,0,0,.84,2.39,2.92,2.92,0,0,0,2.23.84,8.13,8.13,0,0,0,1.76-.18,9.17,9.17,0,0,0,1.76-.6v1.85a7.37,7.37,0,0,1-1.68.56A10.39,10.39,0,0,1,448.76,53.46Zm-.41-9.35a2.3,2.3,0,0,0-1.74.69,3.24,3.24,0,0,0-.77,2h4.85a3,3,0,0,0-.64-2A2.19,2.19,0,0,0,448.35,44.11Z"/><path class="cls-2" d="M470.12,47.91A5.83,5.83,0,0,1,468.77,52,4.82,4.82,0,0,1,465,53.46a5.12,5.12,0,0,1-2.65-.67,4.45,4.45,0,0,1-1.77-1.94,6.69,6.69,0,0,1-.62-2.94,5.84,5.84,0,0,1,1.33-4.06,4.86,4.86,0,0,1,3.76-1.46,4.71,4.71,0,0,1,3.67,1.49A5.75,5.75,0,0,1,470.12,47.91Zm-7.78,0q0,3.71,2.73,3.7t2.71-3.7q0-3.66-2.73-3.66a2.32,2.32,0,0,0-2.07.94A4.82,4.82,0,0,0,462.34,47.91Z"/><path class="cls-2" d="M477.91,44.3H475.3v9H473v-9h-1.75V43.24l1.75-.69v-.7a3.91,3.91,0,0,1,.89-2.81,3.65,3.65,0,0,1,2.72-.91,7.14,7.14,0,0,1,2.36.4l-.6,1.72a5,5,0,0,0-1.61-.28,1.29,1.29,0,0,0-1.12.48,2.39,2.39,0,0,0-.36,1.44v.69h2.61Z"/><path class="cls-2" d="M494.47,43.41a4.15,4.15,0,0,1-1.45,3.4A6.45,6.45,0,0,1,488.89,48h-1.47v5.28h-2.31V39.14h4.07a6.11,6.11,0,0,1,4,1.09A3.87,3.87,0,0,1,494.47,43.41ZM487.42,46h1.23a4.37,4.37,0,0,0,2.61-.62,2.25,2.25,0,0,0,.83-1.93,2.18,2.18,0,0,0-.74-1.81,3.68,3.68,0,0,0-2.32-.6h-1.61Z"/><path class="cls-2" d="M506.15,53.27h-2.28V46.7a2.92,2.92,0,0,0-.5-1.85,1.94,1.94,0,0,0-1.58-.6,2.51,2.51,0,0,0-2.1.85A4.71,4.71,0,0,0,499,48v5.3h-2.27v-15H499v3.81a17.14,17.14,0,0,1-.12,2h.15a3.16,3.16,0,0,1,1.29-1.19,4.06,4.06,0,0,1,1.92-.43q3.89,0,3.89,3.91Z"/><path class="cls-2" d="M507.38,42.58h2.47L512,48.64a11.6,11.6,0,0,1,.66,2.44h.08a9.23,9.23,0,0,1,.32-1.29q.23-.76,2.45-7.21H518l-4.57,12.11c-.83,2.22-2.22,3.34-4.16,3.34a6.56,6.56,0,0,1-1.47-.17v-1.8a5.14,5.14,0,0,0,1.17.12,2.39,2.39,0,0,0,2.31-1.9l.4-1Z"/><path class="cls-2" d="M526.89,50.23a2.8,2.8,0,0,1-1.14,2.4,5.45,5.45,0,0,1-3.27.83,7.77,7.77,0,0,1-3.43-.64v-2a8.58,8.58,0,0,0,3.51.86q2.1,0,2.1-1.26a1,1,0,0,0-.23-.68,2.94,2.94,0,0,0-.77-.56,12.09,12.09,0,0,0-1.48-.65,6.89,6.89,0,0,1-2.49-1.43,2.65,2.65,0,0,1-.66-1.86,2.43,2.43,0,0,1,1.11-2.13,5.22,5.22,0,0,1,3-.76,8.7,8.7,0,0,1,3.57.76L526,44.86a8,8,0,0,0-2.91-.71c-1.19,0-1.79.34-1.79,1a1,1,0,0,0,.46.85,10.36,10.36,0,0,0,2,1,9,9,0,0,1,1.92.94,2.74,2.74,0,0,1,.89,1A2.87,2.87,0,0,1,526.89,50.23Z"/><path class="cls-2" d="M529.08,39.75a1.25,1.25,0,0,1,.34-.94,1.33,1.33,0,0,1,1-.32,1.3,1.3,0,0,1,.93.32,1.28,1.28,0,0,1,.33.94A1.15,1.15,0,0,1,530.37,41a1.29,1.29,0,0,1-1-.33A1.23,1.23,0,0,1,529.08,39.75Zm2.41,13.52h-2.27V42.58h2.27Z"/><path class="cls-2" d="M538.89,53.46a4.68,4.68,0,0,1-3.68-1.41A5.93,5.93,0,0,1,534,48a6,6,0,0,1,1.32-4.15,4.88,4.88,0,0,1,3.81-1.45,7.09,7.09,0,0,1,3,.63l-.68,1.83a6.82,6.82,0,0,0-2.38-.57q-2.77,0-2.77,3.69a4.44,4.44,0,0,0,.69,2.7,2.38,2.38,0,0,0,2,.9,5.83,5.83,0,0,0,2.87-.75v2a4.4,4.4,0,0,1-1.3.51A8,8,0,0,1,538.89,53.46Z"/><path class="cls-2" d="M551.55,50.23a2.8,2.8,0,0,1-1.14,2.4,5.44,5.44,0,0,1-3.26.83,7.72,7.72,0,0,1-3.43-.64v-2a8.5,8.5,0,0,0,3.5.86q2.1,0,2.1-1.26a1,1,0,0,0-.23-.68,2.94,2.94,0,0,0-.77-.56,12.56,12.56,0,0,0-1.47-.65,7,7,0,0,1-2.5-1.43,2.64,2.64,0,0,1-.65-1.86,2.42,2.42,0,0,1,1.1-2.13,5.22,5.22,0,0,1,3-.76,8.67,8.67,0,0,1,3.57.76l-.74,1.71a8,8,0,0,0-2.9-.71q-1.8,0-1.8,1a1,1,0,0,0,.47.85,9.9,9.9,0,0,0,2,1,9,9,0,0,1,1.92.94,2.6,2.6,0,0,1,1.18,2.31Z"/><path class="cls-2" d="M384.62,71.65a5.86,5.86,0,0,1-1.34,4.09,4.81,4.81,0,0,1-3.74,1.47,5.15,5.15,0,0,1-2.65-.68,4.57,4.57,0,0,1-1.77-1.94,6.63,6.63,0,0,1-.61-2.94,5.81,5.81,0,0,1,1.33-4.06,4.84,4.84,0,0,1,3.76-1.46,4.7,4.7,0,0,1,3.67,1.5A5.75,5.75,0,0,1,384.62,71.65Zm-7.78,0c0,2.47.92,3.7,2.74,3.7s2.7-1.23,2.7-3.7-.9-3.66-2.72-3.66a2.33,2.33,0,0,0-2.07,1A4.78,4.78,0,0,0,376.84,71.65Z"/><path class="cls-2" d="M392.42,68.05h-2.61v9h-2.28v-9h-1.76V67l1.76-.69v-.7a3.83,3.83,0,0,1,.89-2.8,3.63,3.63,0,0,1,2.71-.92,7.36,7.36,0,0,1,2.36.4l-.6,1.72a5.21,5.21,0,0,0-1.6-.27,1.31,1.31,0,0,0-1.13.48,2.43,2.43,0,0,0-.35,1.43v.7h2.61Z"/><path class="cls-2" d="M403.36,75.37a5.37,5.37,0,0,0,1.66-.26v1.71a5,5,0,0,1-1,.28,7.15,7.15,0,0,1-1.24.11c-2.15,0-3.22-1.14-3.22-3.4V68.05h-1.46V67l1.56-.83.78-2.26h1.4v2.38h3v1.72h-3v5.72a1.61,1.61,0,0,0,.41,1.21A1.49,1.49,0,0,0,403.36,75.37Z"/><path class="cls-2" d="M416.4,77h-2.28V70.44a2.87,2.87,0,0,0-.5-1.84A1.91,1.91,0,0,0,412,68a2.51,2.51,0,0,0-2.1.85,4.71,4.71,0,0,0-.67,2.87V77H407V62h2.27V65.8a17.28,17.28,0,0,1-.12,2h.15a3,3,0,0,1,1.29-1.2,4.18,4.18,0,0,1,1.92-.43q3.89,0,3.89,3.92Z"/><path class="cls-2" d="M424.12,77.21a5.18,5.18,0,0,1-3.9-1.46,5.5,5.5,0,0,1-1.4-4,6.06,6.06,0,0,1,1.3-4.12,4.49,4.49,0,0,1,3.58-1.5,4.4,4.4,0,0,1,3.35,1.29A4.92,4.92,0,0,1,428.28,71v1.22h-7.13a3.57,3.57,0,0,0,.84,2.39,2.94,2.94,0,0,0,2.24.84,8.13,8.13,0,0,0,1.76-.18,9.75,9.75,0,0,0,1.75-.59v1.84a6.64,6.64,0,0,1-1.68.56A10.15,10.15,0,0,1,424.12,77.21Zm-.42-9.36a2.27,2.27,0,0,0-1.73.69,3.33,3.33,0,0,0-.78,2H426a2.89,2.89,0,0,0-.64-2A2.15,2.15,0,0,0,423.7,67.85Z"/><path class="cls-2" d="M442.25,64.67a3.8,3.8,0,0,0-3.13,1.41A6,6,0,0,0,438,70a6.08,6.08,0,0,0,1.09,3.93,3.88,3.88,0,0,0,3.18,1.34,8.28,8.28,0,0,0,1.74-.18c.56-.12,1.14-.27,1.75-.46v2a10.61,10.61,0,0,1-3.77.63,6,6,0,0,1-4.77-1.88A7.86,7.86,0,0,1,435.54,70a8.63,8.63,0,0,1,.81-3.85,5.69,5.69,0,0,1,2.33-2.54,7.13,7.13,0,0,1,3.59-.88,9,9,0,0,1,4,.91l-.84,1.93a11.31,11.31,0,0,0-1.51-.6A5.45,5.45,0,0,0,442.25,64.67Z"/><path class="cls-2" d="M455.77,77h-8.11v-1.4l5.4-7.54H448V66.33h7.62v1.58l-5.28,7.37h5.44Z"/><path class="cls-2" d="M462.39,77.21a5.18,5.18,0,0,1-3.9-1.46,5.5,5.5,0,0,1-1.4-4,6.06,6.06,0,0,1,1.3-4.12,4.51,4.51,0,0,1,3.59-1.5,4.39,4.39,0,0,1,3.34,1.29A4.92,4.92,0,0,1,466.55,71v1.22h-7.13a3.52,3.52,0,0,0,.85,2.39,2.9,2.9,0,0,0,2.23.84,8.13,8.13,0,0,0,1.76-.18,9.49,9.49,0,0,0,1.75-.59v1.84a6.64,6.64,0,0,1-1.68.56A10.15,10.15,0,0,1,462.39,77.21ZM462,67.85a2.28,2.28,0,0,0-1.74.69,3.33,3.33,0,0,0-.78,2h4.85a2.94,2.94,0,0,0-.63-2A2.18,2.18,0,0,0,462,67.85Z"/><path class="cls-2" d="M473.42,77.21a4.68,4.68,0,0,1-3.69-1.42,5.91,5.91,0,0,1-1.26-4.06,6,6,0,0,1,1.32-4.15,4.92,4.92,0,0,1,3.82-1.45,7.13,7.13,0,0,1,3,.63L476,68.59a7,7,0,0,0-2.37-.56q-2.77,0-2.78,3.68a4.4,4.4,0,0,0,.69,2.7,2.4,2.4,0,0,0,2,.9,5.83,5.83,0,0,0,2.87-.75v2a4.4,4.4,0,0,1-1.3.51A7.36,7.36,0,0,1,473.42,77.21Z"/><path class="cls-2" d="M488.13,77h-2.28V70.44a2.87,2.87,0,0,0-.5-1.84,1.91,1.91,0,0,0-1.58-.61,2.48,2.48,0,0,0-2.1.85,4.71,4.71,0,0,0-.68,2.87V77h-2.27V62H481V65.8a17.16,17.16,0,0,1-.11,2H481a3.11,3.11,0,0,1,1.29-1.2,4.22,4.22,0,0,1,1.93-.43q3.88,0,3.89,3.92Z"/><path class="cls-2" d="M384.15,100.76l-1.41-3.93h-5.4L376,100.76h-2.43l5.29-14.19h2.51l5.28,14.19Zm-2-5.92L380.81,91c-.1-.26-.23-.66-.41-1.22s-.28-1-.35-1.22a21.37,21.37,0,0,1-.76,2.6L378,94.84Z"/><path class="cls-2" d="M392.42,101a4.69,4.69,0,0,1-3.69-1.41,7.18,7.18,0,0,1,.06-8.21,4.88,4.88,0,0,1,3.81-1.45,7.17,7.17,0,0,1,3,.63L395,92.33a7,7,0,0,0-2.38-.56c-1.84,0-2.77,1.23-2.77,3.68a4.4,4.4,0,0,0,.69,2.7,2.38,2.38,0,0,0,2,.91,5.76,5.76,0,0,0,2.87-.76v2a4.72,4.72,0,0,1-1.3.52A8,8,0,0,1,392.42,101Z"/><path class="cls-2" d="M404.63,100.76l-.46-1.49h-.08a4.4,4.4,0,0,1-1.55,1.33,5,5,0,0,1-2,.35,3.39,3.39,0,0,1-2.46-.85,3.19,3.19,0,0,1-.88-2.41,2.81,2.81,0,0,1,1.22-2.49,7.18,7.18,0,0,1,3.74-.92l1.85,0v-.57a2.17,2.17,0,0,0-.48-1.54,2,2,0,0,0-1.48-.5,5.17,5.17,0,0,0-1.58.24,12.12,12.12,0,0,0-1.45.57l-.73-1.62a7.68,7.68,0,0,1,1.9-.7,9.22,9.22,0,0,1,1.95-.23,4.58,4.58,0,0,1,3.08.89,3.48,3.48,0,0,1,1,2.79v7.2Zm-3.39-1.55a2.82,2.82,0,0,0,2-.69,2.51,2.51,0,0,0,.75-1.94v-.92l-1.37,0a4.73,4.73,0,0,0-2.34.54,1.65,1.65,0,0,0-.73,1.46,1.45,1.45,0,0,0,.43,1.11A1.82,1.82,0,0,0,401.24,99.21Z"/><path class="cls-2" d="M412.94,101a3.69,3.69,0,0,1-3.12-1.45,8,8,0,0,1,0-8.16A3.78,3.78,0,0,1,413,89.88a3.68,3.68,0,0,1,3.2,1.55h.12a13.29,13.29,0,0,1-.16-1.81v-3.9h2.28v15h-1.78l-.4-1.4h-.1A3.64,3.64,0,0,1,412.94,101Zm.61-1.84a2.5,2.5,0,0,0,2-.78,4.19,4.19,0,0,0,.65-2.56v-.32a4.88,4.88,0,0,0-.65-2.87,2.47,2.47,0,0,0-2.06-.85,2.11,2.11,0,0,0-1.85,1,5,5,0,0,0-.65,2.77,4.82,4.82,0,0,0,.63,2.71A2.13,2.13,0,0,0,413.55,99.11Z"/><path class="cls-2" d="M426.22,101a5.14,5.14,0,0,1-3.9-1.45,5.52,5.52,0,0,1-1.41-4,6.08,6.08,0,0,1,1.31-4.12,4.52,4.52,0,0,1,3.58-1.49,4.41,4.41,0,0,1,3.34,1.28,4.92,4.92,0,0,1,1.23,3.54v1.23h-7.12a3.51,3.51,0,0,0,.84,2.39,2.91,2.91,0,0,0,2.23.83,9,9,0,0,0,1.77-.17,9.33,9.33,0,0,0,1.75-.6v1.85a7.21,7.21,0,0,1-1.68.56A10.35,10.35,0,0,1,426.22,101Zm-.42-9.35a2.29,2.29,0,0,0-1.73.68,3.24,3.24,0,0,0-.78,2h4.85a2.94,2.94,0,0,0-.64-2A2.16,2.16,0,0,0,425.8,91.6Z"/><path class="cls-2" d="M441.9,100.76h-2.28V94.17a3,3,0,0,0-.46-1.83,1.71,1.71,0,0,0-1.45-.61,2.21,2.21,0,0,0-1.93.86,5,5,0,0,0-.62,2.84v5.33h-2.27V90.07h1.78l.32,1.4h.12a2.91,2.91,0,0,1,1.29-1.18,4.23,4.23,0,0,1,1.86-.41c1.64,0,2.73.56,3.26,1.68h.16A3.25,3.25,0,0,1,443,90.32a4.3,4.3,0,0,1,2-.44,3.6,3.6,0,0,1,2.79,1,4.31,4.31,0,0,1,.87,3v7h-2.27V94.17a2.9,2.9,0,0,0-.47-1.83,1.69,1.69,0,0,0-1.45-.61,2.27,2.27,0,0,0-1.94.83,4.26,4.26,0,0,0-.61,2.54Z"/><path class="cls-2" d="M449.9,90.07h2.47l2.18,6.06a11.37,11.37,0,0,1,.66,2.43h.07a12,12,0,0,1,.32-1.29c.16-.5,1-2.9,2.46-7.2h2.45l-4.57,12.11q-1.24,3.33-4.16,3.33a6.41,6.41,0,0,1-1.46-.16v-1.8a5.14,5.14,0,0,0,1.17.12,2.39,2.39,0,0,0,2.3-1.91l.4-1Z"/><path class="cls-2" d="M476.75,95.39a5.81,5.81,0,0,1-1.34,4.09,4.8,4.8,0,0,1-3.74,1.47,5.14,5.14,0,0,1-2.65-.67,4.51,4.51,0,0,1-1.76-2,6.49,6.49,0,0,1-.62-2.94,5.77,5.77,0,0,1,1.33-4,4.81,4.81,0,0,1,3.76-1.46,4.71,4.71,0,0,1,3.67,1.49A5.78,5.78,0,0,1,476.75,95.39Zm-7.77,0q0,3.7,2.73,3.71c1.8,0,2.71-1.24,2.71-3.71s-.91-3.66-2.73-3.66a2.33,2.33,0,0,0-2.07,1A4.8,4.8,0,0,0,469,95.39Z"/><path class="cls-2" d="M484.55,91.79h-2.61v9h-2.28v-9H477.9V90.73l1.76-.7v-.69a3.9,3.9,0,0,1,.89-2.81,3.62,3.62,0,0,1,2.71-.91,7.34,7.34,0,0,1,2.36.39l-.6,1.72a5.21,5.21,0,0,0-1.6-.27,1.31,1.31,0,0,0-1.13.48,2.46,2.46,0,0,0-.35,1.44v.69h2.61Z"/><path class="cls-2" d="M499.89,96.92a3.56,3.56,0,0,1-1.36,3,6,6,0,0,1-3.76,1.07,9,9,0,0,1-3.92-.74V98a10.58,10.58,0,0,0,2,.72,9,9,0,0,0,2,.26,3.19,3.19,0,0,0,2-.52,1.69,1.69,0,0,0,.65-1.4,1.8,1.8,0,0,0-.59-1.35,9.25,9.25,0,0,0-2.48-1.3,6.44,6.44,0,0,1-2.72-1.79,3.76,3.76,0,0,1-.8-2.41,3.4,3.4,0,0,1,1.26-2.79,5.25,5.25,0,0,1,3.37-1,9.77,9.77,0,0,1,4,.89L499,89.2a8.81,8.81,0,0,0-3.37-.79,2.57,2.57,0,0,0-1.7.49,1.61,1.61,0,0,0-.58,1.29,1.78,1.78,0,0,0,.24.94,2.34,2.34,0,0,0,.76.74,12.81,12.81,0,0,0,1.91.92,10.45,10.45,0,0,1,2.28,1.2,3.62,3.62,0,0,1,1.07,1.27A3.87,3.87,0,0,1,499.89,96.92Z"/><path class="cls-2" d="M506.75,101a4.68,4.68,0,0,1-3.68-1.41,7.18,7.18,0,0,1,.06-8.21,4.88,4.88,0,0,1,3.81-1.45,7.09,7.09,0,0,1,3,.63l-.69,1.82a7,7,0,0,0-2.37-.56q-2.78,0-2.77,3.68a4.4,4.4,0,0,0,.69,2.7,2.37,2.37,0,0,0,2,.91,5.74,5.74,0,0,0,2.87-.76v2a4.72,4.72,0,0,1-1.3.52A8,8,0,0,1,506.75,101Z"/><path class="cls-2" d="M511.9,87.24a1.27,1.27,0,0,1,.33-.94,1.52,1.52,0,0,1,1.89,0,1.27,1.27,0,0,1,.33.94,1.22,1.22,0,0,1-.33.91,1.48,1.48,0,0,1-1.89,0A1.22,1.22,0,0,1,511.9,87.24Zm2.41,13.52H512V90.07h2.28Z"/><path class="cls-2" d="M522.07,101a5.18,5.18,0,0,1-3.9-1.45,5.52,5.52,0,0,1-1.41-4,6.08,6.08,0,0,1,1.31-4.12,4.52,4.52,0,0,1,3.58-1.49A4.45,4.45,0,0,1,525,91.16a5,5,0,0,1,1.22,3.54v1.23H519.1a3.51,3.51,0,0,0,.84,2.39,2.91,2.91,0,0,0,2.23.83,8.94,8.94,0,0,0,1.77-.17,9.1,9.1,0,0,0,1.75-.6v1.85a7.06,7.06,0,0,1-1.68.56A10.28,10.28,0,0,1,522.07,101Zm-.42-9.35a2.29,2.29,0,0,0-1.73.68,3.24,3.24,0,0,0-.78,2H524a2.89,2.89,0,0,0-.64-2A2.14,2.14,0,0,0,521.65,91.6Z"/><path class="cls-2" d="M538.15,100.76h-2.28V94.19a2.9,2.9,0,0,0-.5-1.85,1.94,1.94,0,0,0-1.58-.61,2.55,2.55,0,0,0-2.11.85,4.74,4.74,0,0,0-.66,2.85v5.33h-2.27V90.07h1.77l.32,1.4H531a3.17,3.17,0,0,1,1.37-1.18,4.69,4.69,0,0,1,2-.41q3.86,0,3.85,3.91Z"/><path class="cls-2" d="M545.51,101a4.68,4.68,0,0,1-3.68-1.41,7.2,7.2,0,0,1,0-8.21,4.89,4.89,0,0,1,3.82-1.45,7.13,7.13,0,0,1,3,.63l-.69,1.82a7,7,0,0,0-2.37-.56q-2.77,0-2.78,3.68a4.4,4.4,0,0,0,.69,2.7,2.4,2.4,0,0,0,2,.91,5.74,5.74,0,0,0,2.87-.76v2a4.72,4.72,0,0,1-1.3.52A8,8,0,0,1,545.51,101Z"/><path class="cls-2" d="M555.43,101a5.18,5.18,0,0,1-3.9-1.45,5.52,5.52,0,0,1-1.41-4,6.08,6.08,0,0,1,1.31-4.12A4.52,4.52,0,0,1,555,89.88a4.45,4.45,0,0,1,3.35,1.28,5,5,0,0,1,1.22,3.54v1.23h-7.12a3.51,3.51,0,0,0,.84,2.39,2.91,2.91,0,0,0,2.23.83,7.75,7.75,0,0,0,3.52-.77v1.85a7.06,7.06,0,0,1-1.68.56A10.28,10.28,0,0,1,555.43,101ZM555,91.6a2.29,2.29,0,0,0-1.73.68,3.24,3.24,0,0,0-.78,2h4.85a2.94,2.94,0,0,0-.64-2A2.16,2.16,0,0,0,555,91.6Z"/><path class="cls-2" d="M569.35,97.71a2.81,2.81,0,0,1-1.14,2.41,5.52,5.52,0,0,1-3.27.83,7.6,7.6,0,0,1-3.43-.65v-2a8.45,8.45,0,0,0,3.51.87q2.1,0,2.1-1.26a1,1,0,0,0-.24-.68,2.66,2.66,0,0,0-.76-.56,14.54,14.54,0,0,0-1.48-.66,6.76,6.76,0,0,1-2.5-1.43,2.66,2.66,0,0,1-.65-1.85,2.42,2.42,0,0,1,1.11-2.13,5.22,5.22,0,0,1,3-.76,8.5,8.5,0,0,1,3.56.76l-.73,1.71a7.82,7.82,0,0,0-2.91-.71q-1.8,0-1.8,1a1,1,0,0,0,.47.85,10.66,10.66,0,0,0,2,1,9.55,9.55,0,0,1,1.92.93,2.6,2.6,0,0,1,1.18,2.31Z"/><polygon class="cls-2" points="227.92 101.68 257.09 51.02 229.91 51.02 232.65 38.82 278.98 38.82 250.82 89.48 278.92 89.48 278.92 101.68 227.92 101.68"/><path class="cls-2" d="M314.11,103.09c-17.47,0-28.76-11.4-28.76-29.06V38.82H301V75C301,84.4,305.89,90,314.11,90S327.34,84.4,327.34,75V38.82h15.53V74C342.87,91.69,331.58,103.09,314.11,103.09Z"/><polygon class="cls-2" points="180.84 101.68 180.84 38.82 225.77 38.82 223.19 51.02 196.17 51.02 196.17 67.98 219.43 67.98 216.81 79.68 196.17 79.68 196.17 101.68 180.84 101.68"/><path class="cls-2" d="M143.84,82.85a103.88,103.88,0,0,0-5.91-11.31l-1.05-1.76a106.92,106.92,0,0,0,7-13,66.18,66.18,0,0,0,5.46-18.19c.94-7.55-.45-13.48-4.12-17.63s-9.35-6.22-16.9-6.22h-.11a66.32,66.32,0,0,0-18.71,3.22,109.94,109.94,0,0,0-19.41,8.16l-2.59-1.3a108.37,108.37,0,0,0-16.9-6.86,66.32,66.32,0,0,0-18.71-3.22h-.11c-7.56,0-13.24,2.09-16.89,6.22S29.78,31,30.72,38.56a66.18,66.18,0,0,0,5.46,18.19,105.56,105.56,0,0,0,7,13l-1.06,1.76a104.69,104.69,0,0,0-5.9,11.31A66.18,66.18,0,0,0,30.72,101c-.94,7.55.45,13.48,4.13,17.63s9.33,6.22,16.89,6.22h.11a66.32,66.32,0,0,0,18.71-3.22A109.94,109.94,0,0,0,90,113.51l2.59,1.3a108.37,108.37,0,0,0,16.9,6.86,66.32,66.32,0,0,0,18.71,3.22h.11c7.55,0,13.24-2.09,16.9-6.22s5.06-10.08,4.12-17.63A66.18,66.18,0,0,0,143.84,82.85ZM111.84,35A59.35,59.35,0,0,1,123.3,32.9c.52,0,1-.06,1.45-.06a5.76,5.76,0,0,1,2.37.34,5.66,5.66,0,0,1-.1,2.31A61.46,61.46,0,0,1,123.34,48c-.38.92-.8,1.84-1.22,2.76-2.62-2.79-5.36-5.46-8.16-7.95q-3.54-3.14-7.42-6.07C108.31,36.07,110.08,35.48,111.84,35ZM52.9,33.18a5.76,5.76,0,0,1,2.37-.34c.44,0,.93,0,1.45.06A59.35,59.35,0,0,1,68.18,35c1.75.49,3.53,1.07,5.31,1.71-2.56,1.94-5,4-7.43,6.07-2.8,2.49-5.54,5.16-8.16,7.95-.42-.92-.84-1.84-1.22-2.76A61.46,61.46,0,0,1,53,35.49,5.66,5.66,0,0,1,52.9,33.18ZM51.49,102.4l-.76,0a4.17,4.17,0,0,1-1.54-.21c-.09-.24-.35-1.24.18-3.82a58.26,58.26,0,0,1,3.45-11.12c.37-.9.78-1.8,1.2-2.72a125.71,125.71,0,0,0,12,12.27c.79.7,1.61,1.4,2.45,2.1-1.41.48-2.8.93-4.2,1.32A60.31,60.31,0,0,1,51.49,102.4Zm79.34-.18a4.17,4.17,0,0,1-1.54.21l-.76,0a60.31,60.31,0,0,1-12.82-2.15c-1.39-.39-2.79-.83-4.2-1.31.83-.7,1.64-1.4,2.45-2.11a125.71,125.71,0,0,0,12-12.27c.42.91.83,1.82,1.2,2.72a58.26,58.26,0,0,1,3.45,11.12C131.18,101,130.92,102,130.83,102.22Z"/><path class="cls-3" d="M141.7,24c-2.75-3.11-7.3-4.68-13.52-4.66a61.67,61.67,0,0,0-17.36,3A106.63,106.63,0,0,0,90,31.4q-3.53,2-7,4.23A120.78,120.78,0,0,0,69.14,46.24a122.22,122.22,0,0,0-9.16,9c.25.46.5.92.76,1.38.85,1.51,1.79,3,2.78,4.6A98,98,0,0,1,90,39.24c2.28-1.3,4.61-2.51,7-3.61a88,88,0,0,1,13.62-5.11,64.27,64.27,0,0,1,12.35-2.25c6.41-.51,9.9,1.46,8.64,8.09a65.65,65.65,0,0,1-4,13.39,85.08,85.08,0,0,1-4.46,9.11c-1.15,2-2.4,4.07-3.72,6.06a99.27,99.27,0,0,1-16.73,19.22A99.26,99.26,0,0,1,90,93.67a97.1,97.1,0,0,1-12.28,6.61,87.32,87.32,0,0,1-12.16,4.44A65.38,65.38,0,0,1,51.8,107c-6.73.46-8.26-3.25-7-9.55a64.14,64.14,0,0,1,3.71-12c.71-1.7,1.49-3.39,2.32-5.06l-1.26-1.62c-1.21-1.6-2.39-3.23-3.52-4.88a97.94,97.94,0,0,0-5.65,10.81,61.52,61.52,0,0,0-5.09,16.87c-.77,6.17.24,10.87,3,14s7.3,4.68,13.52,4.66a61.67,61.67,0,0,0,17.36-3,106.63,106.63,0,0,0,20.81-9,120.89,120.89,0,0,0,12.28-7.92c3-2.17,5.84-4.49,8.59-6.92a121.3,121.3,0,0,0,16-17.25c1.57-2.07,3.07-4.17,4.48-6.31a102.83,102.83,0,0,0,8.24-14.94A61.52,61.52,0,0,0,144.69,38C145.46,31.82,144.45,27.12,141.7,24Z"/><path class="cls-4" d="M139.6,84.74A97.94,97.94,0,0,0,134,73.93c-1.13,1.65-2.31,3.28-3.52,4.88l-1.26,1.61c.83,1.68,1.61,3.37,2.32,5.07a64.14,64.14,0,0,1,3.71,12c1.28,6.3-.25,10-7,9.55a65.38,65.38,0,0,1-13.77-2.31c-2.46-.69-4.93-1.51-7.38-2.45-.71.54-1.42,1.08-2.14,1.61-3.31,2.43-6.76,4.7-10.28,6.79a103.66,103.66,0,0,0,16.17,6.56,61.67,61.67,0,0,0,17.36,3c6.22,0,10.77-1.55,13.52-4.66s3.76-7.81,3-14A61.52,61.52,0,0,0,139.6,84.74Z"/><path class="cls-4" d="M120,55.29a122.22,122.22,0,0,0-9.16-9c-3.07-2.71-6.29-5.27-9.61-7.66-.81.35-1.61.71-2.41,1.09-1.49.7-3,1.45-4.45,2.24A97.59,97.59,0,0,1,116.5,61.27c1-1.55,1.93-3.09,2.78-4.6C119.54,56.21,119.79,55.75,120,55.29Z"/><path class="cls-4" d="M40.42,54.86A102.83,102.83,0,0,0,48.66,69.8c1.41,2.14,2.91,4.24,4.48,6.31a121.3,121.3,0,0,0,16,17.25c1.48,1.31,3,2.58,4.54,3.81.74-.31,1.49-.62,2.23-1a92.18,92.18,0,0,0,10-5.26,98,98,0,0,1-8.62-6.81A99.27,99.27,0,0,1,60.58,64.92c-1.32-2-2.57-4-3.72-6.06a85.08,85.08,0,0,1-4.46-9.11,65.65,65.65,0,0,1-4-13.39c-1.26-6.63,2.23-8.6,8.64-8.09a64.27,64.27,0,0,1,12.35,2.25,84.07,84.07,0,0,1,8.77,3c.8-.55,1.6-1.09,2.41-1.62,1.56-1,3.16-2,4.76-3A103.66,103.66,0,0,0,69.2,22.37a61.67,61.67,0,0,0-17.36-3c-6.22,0-10.77,1.55-13.52,4.66s-3.76,7.81-3,14A61.52,61.52,0,0,0,40.42,54.86Z"/><path class="cls-4" d="M90,51.66a15.18,15.18,0,1,0,15.18,15.18A15.18,15.18,0,0,0,90,51.66ZM95.14,68a6,6,0,1,1,6-6A6,6,0,0,1,95.14,68Z"/></svg>