<svg xmlns="http://www.w3.org/2000/svg" xmlns:xlink="http://www.w3.org/1999/xlink" viewBox="34.347 255.858 573.251 130.315" width="569.25" height="126.31"><defs><path d="M523.39 311.39c.3-.26.68-.39 1.07-.38.39-.02.77.12 1.07.38.26.29.4.67.38 1.06.03.4-.11.78-.38 1.07-.29.27-.68.42-1.07.39-.4.03-.78-.12-1.07-.39-.27-.29-.41-.67-.38-1.07-.02-.39.12-.77.38-1.06zm2.39 16.66h-2.62v-12.33h2.62v12.33z" id="x"/><path d="M296.69 298.04h-31.36l3.15-14.07h53.47l-32.49 58.47h32.42v14.08h-58.85l33.66-58.48z" id="a"/><path d="M208.69 283.97h51.85l-2.97 14.07h-31.19v19.59h26.86l-3.03 13.49h-23.83v25.4h-17.69v-72.55z" id="c"/><path d="M435.85 300.65h-2.64v-16.3h9.2v2.25h-6.56v5.1h6.14v2.26h-6.14v6.69z" id="d"/><path d="M443.17 288.31h2.85c1.5 4.2 2.34 6.54 2.5 7 .36.91.62 1.85.77 2.81h.09c.09-.5.21-1 .36-1.49.18-.58 1.12-3.35 2.84-8.32h2.82c-3.16 8.39-4.92 13.05-5.27 13.98-.96 2.56-2.56 3.85-4.8 3.85-.56 0-1.13-.06-1.68-.19v-2.14c.44.1.89.15 1.34.14 1.29-.02 2.4-.93 2.67-2.2.03-.07.18-.46.46-1.16l-4.95-12.28z" id="e"/><path d="M466.03 300.65h-9.37v-1.62l6.27-8.66h-5.85v-2.06h8.8v1.84l-6.1 8.53h6.28l-.03 1.97z" id="f"/><path d="M468.65 283.97c.29-.25.68-.39 1.07-.37.73-.08 1.39.45 1.47 1.18.01.09.01.17 0 .26.06.74-.5 1.39-1.24 1.44-.08.01-.15.01-.23 0-.4.02-.78-.12-1.07-.38-.27-.29-.4-.67-.38-1.06-.02-.39.12-.78.38-1.07zm2.39 16.66h-2.62v-12.32h2.62v12.32z" id="g"/><path d="M478.55 292.28l3.72-3.97h3.06l-4.97 5.34 5.28 7.03h-3.08l-3.96-5.41-1.44 1.18v4.27h-2.59V283.3h2.59v8.46l-.13 2.38 1.52-1.86z" id="h"/><path d="M495.21 300.65l-.52-1.74h-.09c-.46.66-1.08 1.19-1.8 1.55-.73.3-1.52.44-2.31.41-1.04.07-2.07-.29-2.84-.98a3.681 3.681 0 01-1.07-2.78c-.06-1.14.48-2.23 1.42-2.88a8.26 8.26 0 014.27-1.06c.14-.01.85-.03 2.13-.07v-.59c.05-.64-.15-1.28-.55-1.77-.47-.43-1.09-.64-1.71-.59-.62 0-1.24.09-1.83.29-.56.18-1.12.4-1.66.65-.08-.19-.77-1.68-.85-1.87.69-.36 1.43-.63 2.19-.8.74-.17 1.5-.27 2.26-.28 1.27-.08 2.53.3 3.55 1.07a4.07 4.07 0 011.2 3.2v8.3l-1.79-.06zm-1.61-2.54c.6-.58.92-1.4.86-2.23v-1.07c-.94.05-1.47.07-1.57.08-.94-.04-1.87.17-2.7.61-.57.37-.89 1.02-.85 1.69-.03.48.15.95.49 1.28.42.32.95.48 1.48.44.84.04 1.66-.25 2.29-.8zm-3.09-11.26v-.32c.42-.52.86-1.06 1.31-1.74.45-.67.8-1.18 1.07-1.64h3.04v.24c-.55.61-1.13 1.2-1.74 1.76-.77.71-1.42 1.27-1.94 1.66-.24.01-.82.02-1.74.04z" id="i"/><path d="M503.17 300.65h-2.63V283.3h2.63v17.35z" id="j"/><path d="M517.53 300.65h-2.64v-7.59c.06-.75-.14-1.51-.58-2.13-.45-.51-1.13-.78-1.81-.71a2.92 2.92 0 00-2.43.99c-.6.98-.88 2.13-.78 3.28v6.14h-2.62v-12.32h2.04l.38 1.63h.13c.38-.61.93-1.08 1.59-1.37a5.35 5.35 0 012.27-.48c2.96 0 4.43 1.51 4.43 4.52l.02 8.04z" id="k"/><path d="M520.82 286.81v-.28c.43-.52.87-1.06 1.31-1.74.45-.67.8-1.18 1.07-1.64h3.04v.24c-.55.62-1.13 1.2-1.74 1.76-.62.59-1.26 1.14-1.94 1.66h-1.74zm2.75 13.87h-2.61v-12.37h2.61v12.37z" id="l"/><path d="M541.95 300.65l-.36-1.62h-.14c-.38.59-.92 1.06-1.56 1.35-.72.34-1.51.51-2.3.49-1.21.11-2.41-.28-3.34-1.07a4.652 4.652 0 01-1.07-3.38v-8.11h2.65v7.61c-.06.76.14 1.51.58 2.13.46.51 1.13.78 1.82.72.92.07 1.82-.29 2.42-.99.6-1 .88-2.15.78-3.31v-6.16H544v12.34h-2.05zm-4.98-13.87v-.25c.42-.52.85-1.06 1.31-1.74.46-.67.8-1.18 1.07-1.64h3.05v.24c-.55.61-1.13 1.2-1.74 1.76-.77.71-1.42 1.27-1.94 1.66-.23 0-.82-.01-1.75-.03z" id="m"/><path d="M554.71 299.91a6.325 6.325 0 01-3.77.96 8.81 8.81 0 01-3.95-.75v-2.28c1.26.62 2.63.97 4.04 1 1.62 0 2.42-.49 2.42-1.46.01-.28-.08-.56-.27-.78-.25-.26-.54-.48-.87-.65a21.7 21.7 0 00-1.71-.76 7.952 7.952 0 01-2.89-1.62c-.51-.59-.78-1.35-.74-2.13a2.8 2.8 0 011.28-2.46c1.04-.64 2.24-.94 3.46-.88 1.42 0 2.83.3 4.12.89-.08.19-.76 1.77-.84 1.97-1.06-.49-2.2-.77-3.36-.83-2.08 0-1.88 1.06-2.08 1.18 0 .4.2.77.54.98.75.44 1.54.8 2.36 1.07.78.27 1.52.63 2.22 1.07.89.58 1.41 1.6 1.36 2.66.06 1.14-.44 2.18-1.32 2.82z" id="n"/><path d="M565.63 298.45v1.97c-.34.15-.7.25-1.06.32-.47.09-.95.13-1.42.13-2.49 0-3.74-1.3-3.74-3.93v-6.64h-1.67v-1.16l1.8-.95.9-2.62h1.61v2.74h3.51v1.99h-3.51v6.6c-.04.51.13 1.02.48 1.4.32.3.74.47 1.18.46.65-.01 1.3-.11 1.92-.31z" id="o"/><path d="M576 300.65l-.5-1.74h-.09c-.46.64-1.08 1.17-1.79 1.53-.74.3-1.53.44-2.32.41a3.94 3.94 0 01-2.84-.98 3.696 3.696 0 01-1.07-2.78c-.06-1.14.48-2.23 1.42-2.88a8.27 8.27 0 014.32-1.06c.14-.01.85-.03 2.13-.07v-.57a2.51 2.51 0 00-.54-1.77c-.47-.43-1.09-.64-1.72-.59-.61 0-1.23.09-1.81.29-.57.18-1.13.39-1.68.65-.08-.19-.76-1.68-.85-1.87.7-.36 1.43-.63 2.2-.8.74-.18 1.5-.27 2.26-.28 1.27-.08 2.53.3 3.55 1.07a4.07 4.07 0 011.2 3.2v8.3l-1.87-.06zm-1.59-2.54c.6-.58.92-1.4.86-2.23v-1.07c-.94.05-1.47.07-1.57.08-.94-.04-1.87.17-2.7.61-.56.38-.88 1.02-.83 1.69-.04.48.14.94.48 1.28.41.32.94.48 1.47.44.84.04 1.66-.25 2.29-.8z" id="p"/><path d="M584.05 300.65l-4.68-12.34h2.76c1.51 4.31 2.35 6.69 2.52 7.17.36.95.62 1.93.78 2.93h.08c.19-1 .45-1.97.78-2.93.17-.48 1.01-2.86 2.51-7.17h2.78l-4.7 12.34h-2.83z" id="q"/><path d="M443.32 328.05l-1.62-4.52h-6.24l-1.59 4.52h-2.82l6.1-16.34h2.9l6.1 16.36-2.83-.02zm-2.33-6.83c-.91-2.66-1.42-4.14-1.52-4.44-.12-.28-.27-.75-.47-1.39-.21-.64-.33-1.07-.41-1.41-.23 1.02-.52 2.02-.88 3-.1.28-.59 1.7-1.48 4.26l4.76-.02z" id="r"/><path d="M452.27 319.69l3.72-3.97h3.02l-4.96 5.33 5.27 7.03h-3.07l-3.98-5.44-1.44 1.18v4.27h-2.61V310.7h2.61v8.47l-.14 2.38 1.58-1.86z" id="s"/><path d="M468.93 328.05l-.52-1.72h-.14c-.47.65-1.08 1.17-1.8 1.54-.73.29-1.52.43-2.31.4-1.04.06-2.06-.29-2.85-.98a3.69 3.69 0 01-1.01-2.77c-.07-1.14.47-2.24 1.42-2.88a7.953 7.953 0 014.26-1.07c.15 0 .86-.02 2.14-.06v-.66c.05-.64-.15-1.28-.56-1.78a2.26 2.26 0 00-1.7-.58c-.62 0-1.24.09-1.83.28-.57.18-1.13.4-1.67.66-.09-.19-.76-1.69-.85-1.88.7-.35 1.44-.62 2.2-.79.74-.18 1.49-.27 2.25-.28 1.28-.08 2.54.3 3.55 1.07.86.83 1.3 2.01 1.2 3.2v8.31l-1.78-.01zm-1.57-2.58c.6-.59.91-1.4.86-2.23v-1.07c-.95.05-1.48.07-1.59.08-.93-.04-1.86.18-2.68.61-.57.37-.89 1.02-.85 1.69-.03.48.15.94.49 1.28.42.32.95.48 1.48.44.84.04 1.66-.25 2.29-.8z" id="t"/><path d="M474.91 326.64a7.525 7.525 0 01-1.29-4.69 7.53 7.53 0 011.31-4.72 4.35 4.35 0 013.63-1.69c1.46-.08 2.86.6 3.7 1.79h.14c-.11-.71-.18-1.42-.19-2.14v-4.49h2.63v17.35h-2.06l-.44-1.61h-.13a4.208 4.208 0 01-3.69 1.83c-1.4.08-2.75-.53-3.61-1.63zm6.66-1.42c.57-.87.84-1.9.77-2.94v-.38c.1-1.15-.17-2.31-.77-3.3a2.797 2.797 0 00-2.37-.98c-.85-.05-1.66.36-2.13 1.06-.98 2-.98 4.33 0 6.33.46.74 1.28 1.18 2.15 1.15.88.06 1.75-.28 2.35-.94z" id="u"/><path d="M489.34 326.64a6.419 6.419 0 01-1.62-4.62c-.1-1.72.44-3.41 1.51-4.76a5.189 5.189 0 014.14-1.72c1.43-.08 2.83.46 3.85 1.48.99 1.12 1.5 2.59 1.41 4.08v1.38h-8.21c-.04 1.01.31 1.99.97 2.75.68.68 1.62 1.03 2.57.97.69.01 1.37-.07 2.04-.21.7-.16 1.38-.39 2.03-.68v2.13c-.62.3-1.27.51-1.94.64-.74.13-1.48.2-2.22.19-1.67.12-3.32-.47-4.53-1.63zm2.04-8.37c-.55.65-.86 1.46-.89 2.31h5.6c.04-.83-.22-1.66-.74-2.31-.51-.55-1.24-.84-1.98-.79-.73-.03-1.46.25-1.99.79z" id="v"/><path d="M511.94 328.05h-2.63v-7.61c.06-.75-.13-1.5-.54-2.13-.41-.49-1.03-.75-1.67-.69-.86-.07-1.69.3-2.23.98-.55 1-.79 2.14-.7 3.28v6.15h-2.62v-12.31h2.04l.38 1.62h.14c.35-.6.87-1.07 1.49-1.37a4.88 4.88 0 012.13-.48c1.9 0 3.2.65 3.78 1.94h.17c.37-.62.9-1.13 1.55-1.46.7-.35 1.48-.52 2.27-.51 1.17-.12 2.33.27 3.2 1.07.75.96 1.11 2.18 1.01 3.4v8.03h-2.62v-7.52c.05-.75-.13-1.5-.54-2.13-.42-.49-1.04-.74-1.68-.69-.85-.07-1.69.28-2.23.95-.54.87-.79 1.9-.71 2.93 0 .87 0 3.06.01 6.55z" id="w"/><path d="M329.31 324.61v-40.64h18.03v41.81c0 10.79 5.66 17.24 15.16 17.24 9.49 0 15.26-6.4 15.26-17.24v-41.81h17.97v40.64c0 20.38-13.07 33.54-33.23 33.54-20.16 0-33.19-13.16-33.19-33.54z" id="b"/><path d="M530.24 326.64a6.419 6.419 0 01-1.62-4.62c-.11-1.73.43-3.44 1.51-4.8a5.243 5.243 0 014.14-1.73c1.44-.07 2.84.47 3.86 1.49.99 1.12 1.5 2.59 1.42 4.08v1.42h-8.22c-.03 1.01.32 1.99.97 2.75.68.68 1.61 1.03 2.57.97.68.01 1.37-.07 2.04-.21.69-.16 1.37-.39 2.02-.68v2.13c-.61.3-1.27.51-1.94.64-.74.14-1.49.2-2.25.19-1.66.11-3.29-.48-4.5-1.63zm2.02-8.37c-.55.65-.87 1.46-.9 2.31h5.6c.05-.84-.21-1.66-.74-2.31a2.49 2.49 0 00-1.96-.79c-.75-.03-1.48.25-2 .79z" id="y"/><path d="M551.25 328.05l-4.68-12.33h2.76c1.51 4.3 2.35 6.69 2.52 7.17.36.94.62 1.92.78 2.92h.08c.19-.99.45-1.97.78-2.92.17-.48 1.01-2.87 2.52-7.17h2.78l-4.7 12.33h-2.84z" id="z"/><path d="M561.38 326.64a6.384 6.384 0 01-1.63-4.62c-.09-1.72.44-3.41 1.51-4.76a5.202 5.202 0 014.14-1.72c1.43-.08 2.83.46 3.85 1.48a5.7 5.7 0 011.42 4.04v1.42h-8.22c-.04 1.01.31 1.99.97 2.75.68.68 1.62 1.03 2.57.97.69.01 1.37-.07 2.04-.21.7-.16 1.38-.39 2.03-.68v2.13c-.62.3-1.27.51-1.94.64-.74.13-1.49.2-2.24.19a5.93 5.93 0 01-4.5-1.63zm8.34-16.09v.3c-.93.98-1.59 1.7-1.98 2.14-.32.37-.61.78-.87 1.2h-2.9c-.84-1.21-1.79-2.33-2.84-3.36v-.3h1.77c.91.58 1.76 1.27 2.51 2.04.76-.77 1.61-1.46 2.54-2.04.23.01.82.01 1.77.02zm-6.33 7.72c-.55.65-.86 1.46-.89 2.31h5.6c.04-.83-.22-1.66-.74-2.31-.51-.54-1.22-.83-1.96-.79a2.66 2.66 0 00-2.01.79z" id="A"/><path d="M574.35 326.64a7.4 7.4 0 01-1.29-4.69c-.1-1.68.35-3.33 1.3-4.72a4.322 4.322 0 013.63-1.69c1.46-.08 2.86.6 3.71 1.79h.12c-.11-.71-.17-1.42-.18-2.14v-4.49h2.63v17.35h-2.05l-.46-1.61h-.12a4.203 4.203 0 01-3.7 1.83c-1.39.08-2.73-.53-3.59-1.63zm6.65-1.42c.57-.87.84-1.9.76-2.94v-.38a5.53 5.53 0 00-.76-3.3 2.805 2.805 0 00-2.38-.98 2.38 2.38 0 00-2.13 1.06c-.97 2-.97 4.33 0 6.33.47.73 1.28 1.17 2.16 1.15.88.06 1.75-.28 2.35-.94z" id="B"/><path d="M436.53 342.83a6.89 6.89 0 00-1.32 4.49c-.11 1.62.34 3.22 1.27 4.54a4.439 4.439 0 003.66 1.54c.67 0 1.35-.07 2-.21.65-.14 1.33-.31 2.03-.52v2.28c-1.39.5-2.87.75-4.35.72a6.93 6.93 0 01-5.49-2.13 9.033 9.033 0 01-1.92-6.21c-.04-1.53.28-3.05.92-4.44a6.55 6.55 0 012.7-2.93c1.26-.7 2.69-1.05 4.13-1.01 1.6-.01 3.18.35 4.62 1.07-.1.22-.87 1.99-.96 2.21-.57-.26-1.15-.49-1.74-.68a6.1 6.1 0 00-1.94-.35c-1.39-.06-2.73.54-3.61 1.63zm7.67-8.65v.31c-1.41 1.45-1.78 1.92-1.98 2.13-.32.38-.61.79-.88 1.21h-2.94c-.83-1.21-1.78-2.33-2.83-3.35v-.31h1.76c.93.58 1.79 1.28 2.55 2.07.77-.78 1.62-1.47 2.55-2.05.24 0 .83 0 1.77-.01z" id="C"/><path d="M447.95 354a6.357 6.357 0 01-1.62-4.63c-.1-1.71.43-3.4 1.5-4.75a5.202 5.202 0 014.14-1.72c1.44-.08 2.84.46 3.86 1.48.99 1.12 1.5 2.59 1.42 4.08v1.41h-8.18c-.03 1.01.31 1.99.97 2.76.68.68 1.61 1.03 2.57.98.68 0 1.37-.07 2.04-.22.69-.16 1.37-.39 2.02-.68v2.13c-.61.3-1.27.52-1.94.65-.75.14-1.52.2-2.28.18-1.67.1-3.3-.51-4.5-1.67zm2.01-8.33c-.54.65-.86 1.46-.89 2.3h5.6c.05-.83-.21-1.66-.74-2.31-.51-.53-1.23-.82-1.96-.78a2.66 2.66 0 00-2.01.79z" id="D"/><path d="M467.2 354.7a6.224 6.224 0 01-3.78.97c-1.35.06-2.71-.19-3.95-.74v-2.26c1.26.62 2.64.96 4.05 1 1.61 0 2.41-.49 2.41-1.46.01-.29-.08-.56-.27-.78-.25-.27-.54-.49-.87-.65-.55-.29-1.12-.54-1.71-.76a7.9 7.9 0 01-2.88-1.65c-.52-.59-.79-1.35-.75-2.14-.04-.98.45-1.91 1.28-2.45a5.93 5.93 0 013.46-.87c1.42-.01 2.83.29 4.12.87-.08.2-.76 1.78-.84 1.97-1.06-.48-2.2-.76-3.36-.82-1.39 0-2.07.4-2.07 1.19 0 .39.2.76.53.98.74.44 1.54.8 2.36 1.07.78.26 1.52.62 2.22 1.06.44.28.81.67 1.06 1.13.23.5.34 1.04.3 1.58a3.17 3.17 0 01-1.31 2.76z" id="E"/><path d="M475.25 347.09l3.74-3.97h3.02l-4.96 5.33 5.26 7.04h-3.07l-3.97-5.4-1.42 1.18v4.27h-2.61V338.1h2.61v8.47l-.14 2.37 1.54-1.85z" id="F"/><path d="M484.55 354a6.443 6.443 0 01-1.62-4.63c-.1-1.71.44-3.41 1.52-4.75a5.176 5.176 0 014.08-1.72c1.44-.08 2.85.46 3.86 1.48a5.62 5.62 0 011.42 4.08v1.41h-8.22c-.03 1.01.32 1.99.97 2.76.68.68 1.62 1.03 2.58.98.69 0 1.37-.07 2.04-.22.69-.16 1.37-.39 2.01-.68v2.13c-.61.3-1.26.52-1.94.65-.72.13-1.46.19-2.19.18-1.67.09-3.3-.51-4.51-1.67zm1.99-8.33c-.55.65-.87 1.46-.9 2.31h5.59c.05-.83-.21-1.66-.73-2.31-.51-.54-1.23-.83-1.97-.79-.74-.03-1.47.26-1.99.79zm.37-4.1v-.27c.42-.53.86-1.07 1.3-1.75.39-.53.74-1.07 1.07-1.64h3.05v.24c-.39.45-.97 1.07-1.74 1.75-.61.59-1.26 1.15-1.94 1.67h-1.74z" id="G"/><path d="M510.33 343c-.03.25-.24 2.2-.26 2.45-.38-.09-.77-.13-1.16-.13-.97-.03-1.89.36-2.55 1.06-.67.73-1.02 1.69-.97 2.67v6.4h-2.63v-12.33h2.05l.35 2.13h.13c.39-.7.93-1.3 1.6-1.75a3.74 3.74 0 012.13-.6c.44-.01.88.02 1.31.1z" id="H"/><path d="M513.3 354a6.4 6.4 0 01-1.62-4.63c-.1-1.71.44-3.4 1.5-4.75a5.19 5.19 0 014.15-1.72c1.44-.08 2.84.46 3.86 1.48.99 1.12 1.5 2.59 1.41 4.08v1.41h-8.21c-.03 1.01.31 2 .97 2.76.68.68 1.62 1.03 2.57.98.69 0 1.37-.07 2.04-.22.69-.16 1.37-.39 2.02-.68v2.13c-.61.3-1.26.52-1.94.65-.74.14-1.49.2-2.25.18-1.67.1-3.3-.51-4.5-1.67zm2.03-8.33c-.55.65-.87 1.46-.9 2.31h5.6c.04-.83-.22-1.65-.73-2.31-.51-.54-1.23-.83-1.97-.79-.75-.03-1.48.25-2 .79z" id="I"/><path d="M528.13 353.99H528c.11 1.07.16 1.67.16 1.9v5.04h-2.62v-17.81h2.13c.05.22.18.78.36 1.65h.14c.8-1.24 2.21-1.96 3.68-1.87 1.4-.07 2.75.56 3.6 1.67a9.18 9.18 0 010 9.41 4.248 4.248 0 01-3.68 1.69 4.32 4.32 0 01-3.64-1.68zm.71-8.08c-.55.88-.8 1.9-.71 2.93v.39a5.82 5.82 0 00.71 3.27c.56.71 1.43 1.08 2.33 1 .85.05 1.66-.36 2.13-1.07.55-.97.81-2.08.74-3.2.08-1.11-.18-2.23-.74-3.2a2.41 2.41 0 00-2.17-.99c-.87-.11-1.71.23-2.29.87z" id="J"/><path d="M548.32 355.44l-.36-1.62h-.14c-.38.59-.92 1.06-1.56 1.35-.72.34-1.5.51-2.29.49-1.22.12-2.43-.27-3.35-1.06a4.598 4.598 0 01-1.07-3.37v-8.11h2.65v7.61c-.07.75.14 1.51.58 2.13.47.5 1.14.76 1.82.7.91.08 1.81-.29 2.42-.98.61-.99.88-2.15.78-3.31v-6.15h2.6v12.32h-2.08z" id="K"/><path d="M563.81 344.57a9.243 9.243 0 010 9.42 4.757 4.757 0 01-7.27 0h-.17l-.48 1.46h-1.96V338.1h2.61v5.49c0 .61-.05.98-.06 1.14h.11c.8-1.2 2.17-1.89 3.61-1.83 1.41-.07 2.76.55 3.61 1.67zm-6.56 1.39c-.55.94-.81 2.02-.73 3.11v.18c-.08 1.14.17 2.27.72 3.27.56.71 1.44 1.08 2.33 1 .86.06 1.67-.35 2.14-1.07.53-.97.78-2.08.71-3.2-.02-2.81-.97-4.21-2.89-4.21-.87-.09-1.72.25-2.28.92z" id="L"/><path d="M570.67 355.44h-2.63V338.1h2.63v17.34z" id="M"/><path d="M574.43 338.79c.29-.26.68-.39 1.07-.37a1.316 1.316 0 011.46 1.46c.03.39-.11.78-.38 1.06-.29.27-.68.41-1.07.39-.39.02-.78-.12-1.07-.39-.28-.29-.42-.68-.39-1.08-.02-.4.12-.78.38-1.07zm2.39 16.66h-2.61v-12.33h2.61v12.33z" id="N"/><path d="M584.36 347.09l3.73-3.97h3.01l-4.96 5.33 5.27 7.04h-3.07l-3.96-5.4-1.44 1.18v4.27h-2.6V338.1h2.6v8.47l-.13 2.37 1.55-1.85z" id="O"/><path d="M592.38 343.12h2.82l2.52 6.99c.35.91.6 1.85.75 2.81h.09c.09-.5.21-1 .37-1.49.17-.59 1.12-3.35 2.83-8.31h2.84c-3.2 8.38-4.98 13.04-5.34 13.97-1.44 3.84-4.31 3.46-4.79 3.84-.57 0-1.13-.06-1.69-.18v-2.13c.44.1.89.14 1.34.14 1.3-.02 2.4-.93 2.67-2.2.04-.07.22-.45.54-1.12l-4.95-12.32z" id="P"/><path d="M151.9 256.86c-7.4.21-14.73 1.48-21.77 3.77-9.05 2.84-17.79 6.63-26.04 11.31-4.42 2.49-7.84 4.8-8.71 5.33-10.61 6.94-20.3 15.2-28.83 24.57.31.58.63 1.15.95 1.73 1.07 1.89 2.24 3.82 3.49 5.75a122.455 122.455 0 0133.14-27.57c2.86-1.63 5.77-3.2 8.7-4.52 5.51-2.59 11.21-4.74 17.07-6.4a80.97 80.97 0 0115.44-2.8c8.04-.64 12.41 1.82 10.83 10.12a82.49 82.49 0 01-4.95 16.76c-1.64 3.9-3.5 7.7-5.59 11.39-2.13 3.86-4.19 6.82-4.66 7.58a124.198 124.198 0 01-20.94 24.07c-4.97 4.39-10.29 8.39-15.9 11.93-4.92 3.12-10.05 5.88-15.36 8.27-4.92 2.22-9.99 4.07-15.17 5.56a82.622 82.622 0 01-17.24 2.89c-8.42.56-10.33-4.08-8.73-11.96 1.05-5.14 2.6-10.17 4.64-15.01.88-2.13 1.85-4.24 2.9-6.33-.97-1.21-1.52-1.89-1.62-2.02-1.52-2.01-3-4.05-4.42-6.11-2.63 4.36-4.99 8.88-7.07 13.52a77.33 77.33 0 00-6.4 21.12c-.96 7.73.3 13.61 3.74 17.5 3.45 3.88 9.18 5.86 16.95 5.86 7.39-.21 14.71-1.48 21.74-3.77 9.06-2.84 17.78-6.63 26.04-11.31 5.31-3 10.43-6.32 15.34-9.94 5.56-4.09 9.67-7.81 10.75-8.67 7.36-6.53 14.06-13.76 20.02-21.58 2.95-3.89 5.05-7.11 5.61-7.91 3.95-5.93 7.4-12.18 10.32-18.68 3.13-6.7 5.28-13.81 6.4-21.12.97-7.73-.3-13.61-3.75-17.5-3.44-3.89-9.13-5.85-16.92-5.83z" id="Q"/><path d="M159.13 325.17c-1.41 2.06-2.9 4.1-4.42 6.11-.51.67-1.07 1.34-1.57 2.02 1.57 3.2 2.61 5.7 2.9 6.33 2.04 4.84 3.6 9.87 4.65 15.01 1.6 7.88-.31 12.52-8.74 11.96a82.419 82.419 0 01-17.23-2.89c-3.08-.87-6.17-1.9-9.24-3.08-1.32 1.07-2.42 1.82-2.69 2.02-4.13 3.04-8.44 5.89-12.85 8.53 6.51 3.3 13.29 6.05 20.27 8.22a77.647 77.647 0 0021.69 3.77c7.79 0 13.48-1.94 16.92-5.83 3.45-3.89 4.72-9.77 3.76-17.49a77.556 77.556 0 00-6.38-21.16c-2.08-4.65-4.44-9.16-7.07-13.52z" id="R"/><path d="M130.25 290.52c-3.84-3.4-7.86-6.6-12.03-9.6-1 .44-2.01.89-3.01 1.36-1.87.87-3.73 1.81-5.57 2.8a124.21 124.21 0 0115.22 11.5 124.5 124.5 0 0112.42 12.74c1.25-1.88 2.45-3.86 3.52-5.75.29-.58.6-1.15.91-1.73-3.62-3.98-7.44-7.75-11.46-11.32z" id="S"/><path d="M52.38 319.99c2.66 4.03 5.05 7.12 5.61 7.91a151.61 151.61 0 0020.03 21.58c1.84 1.64 3.74 3.2 5.67 4.78.94-.39 1.87-.78 2.78-1.2 4.32-1.94 8.51-4.14 12.56-6.59-3.75-2.64-7.36-5.49-10.8-8.53-7.98-7.1-15.02-15.2-20.93-24.1-2.49-3.73-4.2-6.83-4.67-7.58-2.08-3.69-3.94-7.49-5.57-11.4a81.586 81.586 0 01-4.95-16.75c-1.58-8.26 2.79-10.72 10.82-10.08 5.23.43 10.41 1.37 15.46 2.8 3.72 1.06 7.38 2.31 10.96 3.76 1-.69 2-1.37 3.01-2.03 1.97-1.28 3.96-2.52 5.97-3.71-6.52-3.3-13.3-6.05-20.27-8.22a77.63 77.63 0 00-21.74-3.77c-7.78 0-13.47 1.94-16.92 5.83-3.44 3.9-4.7 9.77-3.74 17.5a77.33 77.33 0 006.4 21.12c2.92 6.5 6.37 12.75 10.32 18.68z" id="T"/><path d="M85.12 316.3c0 10.5 8.51 19.01 19.01 19.01 10.5 0 19.01-8.51 19.01-19.01v-.01c0-10.49-8.51-18.99-19-18.99h-.01c-10.5 0-19.01 8.51-19.01 19zm17.94-5.99a7.47 7.47 0 017.47-7.47c4.12 0 7.46 3.35 7.46 7.47 0 4.11-3.32 7.45-7.43 7.47-4.16 0-7.5-3.35-7.5-7.47z" id="U"/></defs><use xlink:href="#a" fill="#002d72"/><use xlink:href="#a" fill-opacity="0" stroke="#000" stroke-opacity="0"/><use xlink:href="#b" fill="#002d72"/><use xlink:href="#b" fill-opacity="0" stroke="#000" stroke-opacity="0"/><use xlink:href="#c" fill="#002d72"/><use xlink:href="#c" fill-opacity="0" stroke="#000" stroke-opacity="0"/><use xlink:href="#d" fill="#002d72"/><use xlink:href="#d" fill-opacity="0" stroke="#000" stroke-opacity="0"/><use xlink:href="#e" fill="#002d72"/><use xlink:href="#e" fill-opacity="0" stroke="#000" stroke-opacity="0"/><use xlink:href="#f" fill="#002d72"/><use xlink:href="#f" fill-opacity="0" stroke="#000" stroke-opacity="0"/><use xlink:href="#g" fill="#002d72"/><use xlink:href="#g" fill-opacity="0" stroke="#000" stroke-opacity="0"/><use xlink:href="#h" fill="#002d72"/><use xlink:href="#h" fill-opacity="0" stroke="#000" stroke-opacity="0"/><use xlink:href="#i" fill="#002d72"/><use xlink:href="#i" fill-opacity="0" stroke="#000" stroke-opacity="0"/><use xlink:href="#j" fill="#002d72"/><use xlink:href="#j" fill-opacity="0" stroke="#000" stroke-opacity="0"/><use xlink:href="#k" fill="#002d72"/><use xlink:href="#k" fill-opacity="0" stroke="#000" stroke-opacity="0"/><use xlink:href="#l" fill="#002d72"/><use xlink:href="#l" fill-opacity="0" stroke="#000" stroke-opacity="0"/><use xlink:href="#m" fill="#002d72"/><use xlink:href="#m" fill-opacity="0" stroke="#000" stroke-opacity="0"/><use xlink:href="#n" fill="#002d72"/><use xlink:href="#n" fill-opacity="0" stroke="#000" stroke-opacity="0"/><use xlink:href="#o" fill="#002d72"/><use xlink:href="#o" fill-opacity="0" stroke="#000" stroke-opacity="0"/><use xlink:href="#p" fill="#002d72"/><use xlink:href="#p" fill-opacity="0" stroke="#000" stroke-opacity="0"/><use xlink:href="#q" fill="#002d72"/><use xlink:href="#q" fill-opacity="0" stroke="#000" stroke-opacity="0"/><use xlink:href="#r" fill="#002d72"/><use xlink:href="#r" fill-opacity="0" stroke="#000" stroke-opacity="0"/><use xlink:href="#s" fill="#002d72"/><use xlink:href="#s" fill-opacity="0" stroke="#000" stroke-opacity="0"/><use xlink:href="#t" fill="#002d72"/><use xlink:href="#t" fill-opacity="0" stroke="#000" stroke-opacity="0"/><use xlink:href="#u" fill="#002d72"/><use xlink:href="#u" fill-opacity="0" stroke="#000" stroke-opacity="0"/><use xlink:href="#v" fill="#002d72"/><use xlink:href="#v" fill-opacity="0" stroke="#000" stroke-opacity="0"/><use xlink:href="#w" fill="#002d72"/><use xlink:href="#w" fill-opacity="0" stroke="#000" stroke-opacity="0"/><use xlink:href="#x" fill="#002d72"/><use xlink:href="#x" fill-opacity="0" stroke="#000" stroke-opacity="0"/><g><use xlink:href="#y" fill="#002d72"/><use xlink:href="#y" fill-opacity="0" stroke="#000" stroke-opacity="0"/></g><g><use xlink:href="#z" fill="#002d72"/><use xlink:href="#z" fill-opacity="0" stroke="#000" stroke-opacity="0"/></g><g><use xlink:href="#A" fill="#002d72"/><use xlink:href="#A" fill-opacity="0" stroke="#000" stroke-opacity="0"/></g><g><use xlink:href="#B" fill="#002d72"/><use xlink:href="#B" fill-opacity="0" stroke="#000" stroke-opacity="0"/></g><g><use xlink:href="#C" fill="#002d72"/><use xlink:href="#C" fill-opacity="0" stroke="#000" stroke-opacity="0"/></g><g><use xlink:href="#D" fill="#002d72"/><use xlink:href="#D" fill-opacity="0" stroke="#000" stroke-opacity="0"/></g><g><use xlink:href="#E" fill="#002d72"/><use xlink:href="#E" fill-opacity="0" stroke="#000" stroke-opacity="0"/></g><g><use xlink:href="#F" fill="#002d72"/><use xlink:href="#F" fill-opacity="0" stroke="#000" stroke-opacity="0"/></g><g><use xlink:href="#G" fill="#002d72"/><use xlink:href="#G" fill-opacity="0" stroke="#000" stroke-opacity="0"/></g><g><use xlink:href="#H" fill="#002d72"/><use xlink:href="#H" fill-opacity="0" stroke="#000" stroke-opacity="0"/></g><g><use xlink:href="#I" fill="#002d72"/><use xlink:href="#I" fill-opacity="0" stroke="#000" stroke-opacity="0"/></g><g><use xlink:href="#J" fill="#002d72"/><use xlink:href="#J" fill-opacity="0" stroke="#000" stroke-opacity="0"/></g><g><use xlink:href="#K" fill="#002d72"/><use xlink:href="#K" fill-opacity="0" stroke="#000" stroke-opacity="0"/></g><g><use xlink:href="#L" fill="#002d72"/><use xlink:href="#L" fill-opacity="0" stroke="#000" stroke-opacity="0"/></g><g><use xlink:href="#M" fill="#002d72"/><use xlink:href="#M" fill-opacity="0" stroke="#000" stroke-opacity="0"/></g><g><use xlink:href="#N" fill="#002d72"/><use xlink:href="#N" fill-opacity="0" stroke="#000" stroke-opacity="0"/></g><g><use xlink:href="#O" fill="#002d72"/><use xlink:href="#O" fill-opacity="0" stroke="#000" stroke-opacity="0"/></g><g><use xlink:href="#P" fill="#002d72"/><use xlink:href="#P" fill-opacity="0" stroke="#000" stroke-opacity="0"/></g><g><use xlink:href="#Q" fill="#0072ce"/><use xlink:href="#Q" fill-opacity="0" stroke="#000" stroke-opacity="0"/></g><g><use xlink:href="#R" fill="#002d72"/><use xlink:href="#R" fill-opacity="0" stroke="#000" stroke-opacity="0"/></g><g><use xlink:href="#S" fill="#002d72"/><use xlink:href="#S" fill-opacity="0" stroke="#000" stroke-opacity="0"/></g><g><use xlink:href="#T" fill="#002d72"/><use xlink:href="#T" fill-opacity="0" stroke="#000" stroke-opacity="0"/></g><g><use xlink:href="#U" fill="#002d72"/><use xlink:href="#U" fill-opacity="0" stroke="#000" stroke-opacity="0"/></g></svg>