<svg xmlns="http://www.w3.org/2000/svg" xmlns:xlink="http://www.w3.org/1999/xlink" viewBox="-1 -1 719.295 149.299" width="715.29" height="145.3"><defs><path d="M494.89 79.73c.73 0 1.47-.11 2.2-.34v2.27c-.33.14-.76.26-1.29.36-.52.1-1.07.15-1.63.15-2.86 0-4.29-1.5-4.29-4.52v-7.64h-1.94v-1.34l2.08-1.1 1.03-3h1.86v3.15h4.04v2.29h-4.04v7.59c0 .73.18 1.27.54 1.61.37.35.85.52 1.44.52" id="C"/><path d="M199.42 114.66V31.19h59.66l-3.43 16.2h-35.88v22.53h30.9l-3.48 15.53h-27.42v29.21h-20.35z" id="a"/><path d="M376.38 116.54c-23.2 0-38.18-15.15-38.18-38.59V31.19h20.75v48.1c0 12.43 6.52 19.85 17.43 19.85 11 0 17.57-7.42 17.57-19.85v-48.1h20.62v46.76c0 23.44-14.99 38.59-38.19 38.59" id="c"/><path d="M153.54 6.71C149.58 2.23 143.03-.02 134.08 0c-7.16.02-15.81 1.52-25.01 4.35-10.04 3.08-20.18 7.5-29.96 13-3.39 1.9-6.73 3.94-10.02 6.09-7 4.59-13.74 9.72-20.03 15.29a170.59 170.59 0 00-13.19 13.02c.36.67.72 1.33 1.09 1.99 1.23 2.18 2.57 4.4 4 6.62 4.41-5.21 9.2-10.13 14.29-14.64a143.67 143.67 0 0123.86-17.08c3.28-1.88 6.63-3.61 10.01-5.2 6.45-3.03 13.04-5.51 19.62-7.36 7.09-1.99 13.05-2.85 17.78-3.23 9.23-.73 14.27 2.1 12.45 11.65-.95 4.93-2.44 11.46-5.7 19.28-1.84 4.42-4 8.8-6.42 13.11a142.02 142.02 0 01-5.36 8.73c-6.73 10.1-14.92 19.55-24.09 27.68-5.69 5.05-11.85 9.65-18.29 13.73a141.82 141.82 0 01-17.68 9.52c-5.78 2.59-11.65 4.74-17.52 6.39-8.15 2.29-14.81 2.99-19.82 3.33-9.7.65-11.91-4.69-10.06-13.76.94-4.65 2.51-10.47 5.35-17.27 1.02-2.44 2.13-4.87 3.34-7.29-.61-.77-1.22-1.54-1.81-2.32-1.75-2.31-3.46-4.66-5.09-7.03-3.07 5.12-5.8 10.33-8.13 15.56-3.91 8.79-6.45 17.19-7.33 24.3-1.11 8.88.34 15.65 4.31 20.13 3.97 4.48 10.51 6.73 19.47 6.71 7.16-.02 15.8-1.52 25-4.35 10.05-3.08 20.18-7.5 29.97-13 6.06-3.41 11.98-7.23 17.68-11.4 4.27-3.14 8.41-6.47 12.37-9.98 8.48-7.51 16.25-15.92 23.04-24.83 2.26-2.98 4.42-6.01 6.45-9.09 4.63-7.01 8.64-14.24 11.87-21.51 3.92-8.79 6.45-17.19 7.33-24.3 1.11-8.88-.34-15.66-4.31-20.13" id="d"/><path d="M150.52 94.16c-2.33-5.23-5.06-10.44-8.13-15.57-1.63 2.38-3.33 4.74-5.08 7.04-.6.78-1.21 1.54-1.81 2.32 1.2 2.41 2.32 4.85 3.33 7.29 2.84 6.8 4.41 12.62 5.36 17.27 1.84 9.07-.36 14.41-10.06 13.76-5.01-.34-11.68-1.04-19.83-3.33-3.55-1-7.1-2.18-10.63-3.53-1.02.78-2.05 1.55-3.08 2.32-4.77 3.49-9.73 6.77-14.8 9.77 7.68 3.87 15.51 7.06 23.28 9.45 9.2 2.83 17.85 4.33 25.01 4.35 8.95.02 15.5-2.23 19.46-6.71 3.97-4.47 5.42-11.25 4.31-20.13-.88-7.11-3.41-15.51-7.33-24.3" id="e"/><path d="M122.35 51.75c-4.16-4.56-8.57-8.93-13.19-13.02-4.42-3.91-9.05-7.6-13.84-11.03-1.16.5-2.32 1.01-3.47 1.55-2.15 1.01-4.29 2.1-6.41 3.23 6.16 3.96 12.06 8.4 17.52 13.24 5.1 4.51 9.88 9.43 14.29 14.64 1.43-2.22 2.78-4.44 4-6.62.37-.66.74-1.32 1.1-1.99" id="f"/><path d="M7.69 51.14c3.24 7.27 7.24 14.5 11.87 21.51 2.04 3.07 4.19 6.11 6.46 9.09a174.38 174.38 0 0023.04 24.83c2.12 1.89 4.31 3.72 6.53 5.5 1.07-.45 2.14-.9 3.21-1.38 4.89-2.2 9.74-4.75 14.44-7.59a140.51 140.51 0 01-12.43-9.8c-9.17-8.13-17.35-17.58-24.08-27.68-1.91-2.87-3.71-5.78-5.37-8.73-2.42-4.31-4.58-8.69-6.42-13.11-3.26-7.82-4.75-14.35-5.69-19.28-1.82-9.55 3.21-12.38 12.44-11.65 4.73.38 10.7 1.24 17.79 3.23 4.21 1.19 8.44 2.64 12.62 4.32 1.15-.79 2.3-1.57 3.47-2.34 2.25-1.47 4.55-2.89 6.86-4.26-7.68-3.87-15.51-7.06-23.29-9.45C39.94 1.52 31.3.02 24.14 0 15.19-.02 8.63 2.23 4.67 6.71.71 11.19-.75 17.96.36 26.84c.88 7.11 3.42 15.51 7.33 24.3" id="g"/><path d="M86.5 70.09c-4.76 0-8.61-3.85-8.61-8.61a8.61 8.61 0 018.61-8.61c4.75 0 8.61 3.86 8.61 8.61a8.61 8.61 0 01-8.61 8.61m-7.39-23.56c-12.08 0-21.87 9.79-21.87 21.86 0 12.08 9.79 21.86 21.87 21.86 12.07 0 21.86-9.78 21.86-21.86 0-12.07-9.79-21.86-21.86-21.86" id="h"/><path d="M457.74 31.63h3.07v18.75h-3.07V31.63z" id="i"/><path d="M477.68 50.39h-3.03v-8.73c0-1.09-.22-1.91-.66-2.45-.44-.54-1.14-.81-2.1-.81-1.27 0-2.21.38-2.8 1.13-.59.75-.88 2.01-.88 3.79v7.07h-3.02v-14.2h2.36l.43 1.86h.15c.43-.67 1.04-1.19 1.82-1.56.79-.37 1.66-.55 2.62-.55 3.4 0 5.11 1.73 5.11 5.19v9.26z" id="j"/><path d="M491.38 46.34c0 1.39-.51 2.45-1.52 3.19-1.01.74-2.45 1.11-4.33 1.11-1.89 0-3.41-.29-4.56-.86v-2.6c1.67.77 3.22 1.15 4.66 1.15 1.86 0 2.78-.56 2.78-1.68 0-.36-.1-.66-.3-.9-.21-.24-.55-.48-1.02-.74s-1.12-.55-1.96-.87c-1.64-.64-2.74-1.27-3.32-1.9-.57-.64-.86-1.46-.86-2.47 0-1.21.49-2.15 1.46-2.83.98-.67 2.32-1 4-1 1.67 0 3.25.34 4.74 1.01-.1.23-.88 2.05-.98 2.27-1.53-.63-2.82-.95-3.86-.95-1.59 0-2.39.46-2.39 1.36 0 .45.21.82.63 1.13.41.31 1.31.73 2.71 1.27 1.17.46 2.02.87 2.55 1.25.53.37.92.81 1.18 1.3.26.49.39 1.08.39 1.76" id="k"/><path d="M500.22 48.2c.73 0 1.47-.11 2.2-.34v2.27c-.33.14-.76.27-1.28.36-.53.1-1.08.15-1.64.15-2.86 0-4.29-1.5-4.29-4.51v-7.65h-1.93v-1.34l2.08-1.1 1.02-3h1.86v3.15h4.04v2.29h-4.04v7.59c0 .73.18 1.27.55 1.61.36.35.84.52 1.43.52" id="l"/><path d="M508.06 50.38h-3.01V36.19h3.01v14.19zm-3.19-17.94c0-.54.15-.96.44-1.25.3-.29.72-.43 1.27-.43.52 0 .94.14 1.23.43.3.29.45.71.45 1.25 0 .51-.15.91-.45 1.21-.29.29-.71.44-1.23.44-.55 0-.97-.15-1.27-.44-.29-.3-.44-.7-.44-1.21" id="m"/><path d="M517.53 48.2c.74 0 1.47-.11 2.21-.34v2.27c-.33.14-.76.27-1.29.36-.53.1-1.07.15-1.64.15-2.85 0-4.28-1.5-4.28-4.51v-7.65h-1.94v-1.34l2.08-1.1 1.03-3h1.86v3.15h4.04v2.29h-4.04v7.59c0 .73.18 1.27.54 1.61.36.35.84.52 1.43.52" id="n"/><path d="M532.36 50.39l-.42-1.87h-.16c-.42.66-1.01 1.18-1.79 1.56-.77.37-1.66.56-2.65.56-1.72 0-3-.43-3.85-1.28-.84-.86-1.27-2.15-1.27-3.89v-9.28h3.04v8.76c0 1.08.23 1.9.67 2.44.45.54 1.14.81 2.09.81 1.27 0 2.2-.37 2.79-1.13.6-.76.89-2.03.89-3.81v-7.07h3.03v14.2h-2.37z" id="o"/><path d="M544.2 48.2c.74 0 1.47-.11 2.21-.34v2.27c-.33.14-.76.27-1.29.36-.52.1-1.07.15-1.63.15-2.86 0-4.29-1.5-4.29-4.51v-7.65h-1.94v-1.34l2.08-1.1 1.03-3h1.86v3.15h4.04v2.29h-4.04v7.59c0 .73.18 1.27.54 1.61.37.35.85.52 1.43.52" id="p"/><path d="M554.63 38.22c-.96 0-1.73.31-2.31.91-.57.61-.92 1.49-1.03 2.66h6.44c-.02-1.17-.3-2.06-.85-2.66-.54-.61-1.3-.91-2.25-.91m.55 12.42c-2.21 0-3.93-.64-5.18-1.93-1.24-1.29-1.87-3.06-1.87-5.32 0-2.32.58-4.14 1.74-5.46 1.15-1.33 2.74-1.99 4.76-1.99 1.87 0 3.35.57 4.44 1.7 1.08 1.14 1.63 2.71 1.63 4.7v1.63h-9.46c.04 1.38.41 2.44 1.12 3.17.7.75 1.68 1.12 2.96 1.12.84 0 1.62-.08 2.34-.24.72-.16 1.5-.42 2.33-.79v2.45c-.74.35-1.48.6-2.23.74-.76.15-1.62.22-2.58.22" id="q"/><path d="M573.21 43.26c0 3.28 1.21 4.92 3.63 4.92 2.39 0 3.59-1.64 3.59-4.92 0-3.24-1.21-4.86-3.62-4.86-1.26 0-2.18.42-2.75 1.26-.57.84-.85 2.04-.85 3.6m10.32 0c0 2.32-.59 4.13-1.78 5.43-1.19 1.3-2.84 1.95-4.96 1.95-1.33 0-2.5-.3-3.52-.9-1.02-.6-1.8-1.45-2.35-2.58-.55-1.12-.82-2.42-.82-3.9 0-2.3.59-4.09 1.77-5.38 1.18-1.3 2.85-1.94 4.99-1.94 2.05 0 3.68.66 4.88 1.98 1.2 1.32 1.79 3.1 1.79 5.34" id="r"/><path d="M593.89 38.48h-3.47v11.9h-3.03v-11.9h-2.33v-1.41l2.33-.93v-.92c0-1.68.4-2.92 1.18-3.73.79-.81 1.99-1.21 3.61-1.21 1.06 0 2.1.18 3.13.53-.08.22-.72 2.05-.8 2.28-.74-.24-1.45-.36-2.13-.36-.68 0-1.18.21-1.49.64-.31.42-.47 1.05-.47 1.9v.92h3.47v2.29z" id="s"/><path d="M606.51 40.79h1.63c1.57 0 2.73-.28 3.46-.82.74-.55 1.11-1.41 1.11-2.57 0-1.08-.33-1.88-.99-2.41-.66-.53-1.69-.8-3.08-.8h-2.13v6.6zm9.35-3.49c0 1.96-.64 3.46-1.92 4.5-1.28 1.04-3.11 1.57-5.48 1.57h-1.95v7.02h-3.07V31.63h5.41c2.34 0 4.1.47 5.26 1.43 1.17.96 1.75 2.37 1.75 4.24" id="t"/><path d="M631.38 50.39h-3.03v-8.73c0-1.09-.22-1.91-.66-2.45-.44-.54-1.14-.81-2.1-.81-1.27 0-2.19.38-2.79 1.14-.59.75-.89 2.02-.89 3.8v7.05h-3.02V30.42h3.02v5.07c0 .81-.05 1.68-.16 2.6h.2c.41-.68.98-1.21 1.71-1.59.73-.37 1.58-.56 2.56-.56 3.44 0 5.16 1.73 5.16 5.19v9.26z" id="u"/><path d="M633.01 36.19h3.28c1.73 4.83 2.7 7.51 2.89 8.05.44 1.15.73 2.22.87 3.23h.1c.08-.47.22-1.04.43-1.71.2-.67 1.29-3.86 3.26-9.57h3.26c-3.65 9.65-5.67 15.01-6.07 16.08-1.11 2.95-2.95 4.43-5.52 4.43-.67 0-1.32-.08-1.95-.22v-2.39c.45.11.97.16 1.55.16 1.46 0 2.48-.85 3.07-2.53.03-.09.21-.53.53-1.33l-5.7-14.2z" id="v"/><path d="M658.92 46.34c0 1.39-.51 2.45-1.52 3.19-1 .74-2.45 1.11-4.33 1.11-1.89 0-3.41-.29-4.56-.86v-2.6c1.67.77 3.22 1.15 4.66 1.15 1.86 0 2.78-.56 2.78-1.68 0-.36-.1-.66-.3-.9-.21-.24-.55-.48-1.02-.74s-1.12-.55-1.96-.87c-1.63-.64-2.74-1.27-3.32-1.9-.57-.64-.86-1.46-.86-2.47 0-1.21.49-2.15 1.47-2.83.98-.67 2.31-1 3.99-1 1.67 0 3.25.34 4.74 1.01-.1.23-.88 2.05-.98 2.27-1.53-.63-2.82-.95-3.86-.95-1.59 0-2.39.46-2.39 1.36 0 .45.21.82.63 1.13.41.31 1.32.73 2.71 1.27 1.17.46 2.02.87 2.55 1.25.53.37.93.81 1.18 1.3.26.49.39 1.08.39 1.76" id="w"/><path d="M665.02 50.38h-3.01V36.19h3.01v14.19zm-3.19-17.94c0-.54.15-.96.44-1.25.3-.29.72-.43 1.27-.43.53 0 .94.14 1.23.43.3.29.45.71.45 1.25 0 .51-.15.91-.45 1.21-.29.29-.7.44-1.23.44-.55 0-.97-.15-1.27-.44-.29-.3-.44-.7-.44-1.21" id="x"/><path d="M674.86 50.64c-2.15 0-3.78-.63-4.9-1.88-1.11-1.25-1.67-3.05-1.67-5.39 0-2.39.58-4.23 1.75-5.51 1.17-1.28 2.85-1.92 5.06-1.92 1.5 0 2.85.28 4.04.83-.09.24-.82 2.18-.91 2.43-1.27-.5-2.32-.75-3.15-.75-2.46 0-3.69 1.63-3.69 4.89 0 1.59.31 2.79.92 3.59.61.8 1.51 1.2 2.69 1.2 1.34 0 2.61-.34 3.81-1v2.63c-.54.31-1.11.54-1.73.68-.61.13-1.35.2-2.22.2" id="y"/><path d="M691.67 46.34c0 1.39-.51 2.45-1.52 3.19-1.01.74-2.45 1.11-4.33 1.11-1.9 0-3.41-.29-4.56-.86v-2.6c1.67.77 3.22 1.15 4.66 1.15 1.85 0 2.78-.56 2.78-1.68 0-.36-.1-.66-.31-.9-.2-.24-.54-.48-1.01-.74s-1.13-.55-1.96-.87c-1.64-.64-2.74-1.27-3.32-1.9-.58-.64-.87-1.46-.87-2.47 0-1.21.49-2.15 1.47-2.83.98-.67 2.31-1 4-1 1.67 0 3.25.34 4.73 1.01-.09.23-.87 2.05-.97 2.27-1.53-.63-2.82-.95-3.86-.95-1.59 0-2.39.46-2.39 1.36 0 .45.21.82.62 1.13.42.31 1.32.73 2.72 1.27 1.17.46 2.02.87 2.55 1.25.53.37.92.81 1.18 1.3.26.49.39 1.08.39 1.76" id="z"/><path d="M459.68 74.79c0 3.28 1.21 4.92 3.63 4.92 2.4 0 3.59-1.64 3.59-4.92 0-3.24-1.2-4.86-3.61-4.86-1.27 0-2.19.42-2.75 1.26-.57.84-.86 2.04-.86 3.6m10.33 0c0 2.32-.59 4.13-1.78 5.43-1.19 1.3-2.85 1.95-4.97 1.95-1.33 0-2.5-.3-3.51-.9-1.02-.6-1.81-1.46-2.35-2.58-.55-1.12-.82-2.42-.82-3.9 0-2.3.59-4.09 1.77-5.39 1.18-1.29 2.84-1.93 4.99-1.93 2.05 0 3.68.66 4.87 1.98 1.2 1.32 1.8 3.1 1.8 5.34" id="A"/><path d="M480.36 70.01h-3.46v11.9h-3.03v-11.9h-2.34V68.6l2.34-.93v-.92c0-1.68.39-2.92 1.18-3.73.78-.81 1.99-1.21 3.6-1.21 1.06 0 2.11.17 3.13.52-.07.23-.71 2.06-.79 2.29-.75-.24-1.46-.36-2.13-.36-.69 0-1.18.21-1.5.63-.31.43-.46 1.06-.46 1.91v.92h3.46v2.29z" id="B"/><path d="M261.94 114.66l38.73-67.27h-36.09l3.63-16.2h61.52l-37.39 67.28h37.31v16.19h-67.71z" id="b"/><path d="M512.2 81.91h-3.03v-8.72c0-1.1-.22-1.91-.66-2.45-.44-.54-1.14-.81-2.1-.81-1.26 0-2.19.38-2.78 1.13-.6.76-.9 2.03-.9 3.81v7.04h-3.01V61.95h3.01v5.07c0 .81-.05 1.68-.15 2.6h.19c.41-.68.98-1.21 1.71-1.59.73-.38 1.59-.56 2.56-.56 3.44 0 5.16 1.73 5.16 5.19v9.25z" id="D"/><path d="M521.9 69.75c-.95 0-1.72.3-2.3.91-.58.61-.92 1.49-1.03 2.66h6.44c-.02-1.17-.3-2.06-.85-2.67-.55-.6-1.3-.9-2.26-.9m.56 12.42c-2.21 0-3.94-.64-5.18-1.93-1.25-1.29-1.87-3.06-1.87-5.32 0-2.32.58-4.14 1.73-5.47 1.16-1.32 2.74-1.98 4.76-1.98 1.88 0 3.36.56 4.44 1.7 1.09 1.14 1.63 2.71 1.63 4.7v1.63h-9.45c.04 1.38.41 2.43 1.11 3.17.7.74 1.69 1.11 2.97 1.11.83 0 1.62-.08 2.34-.23.72-.16 1.5-.42 2.33-.79v2.45c-.74.35-1.48.6-2.24.74-.75.15-1.61.22-2.57.22" id="E"/><path d="M546.53 65.52c-1.77 0-3.15.62-4.16 1.87-1.01 1.25-1.52 2.97-1.52 5.17 0 2.3.49 4.04 1.46 5.22.97 1.18 2.38 1.77 4.22 1.77.79 0 1.56-.08 2.3-.24.75-.15 1.52-.35 2.33-.6v2.63c-1.47.55-3.14.83-5.01.83-2.74 0-4.85-.83-6.32-2.5-1.47-1.66-2.21-4.04-2.21-7.14 0-1.95.36-3.65 1.07-5.12.72-1.46 1.75-2.58 3.1-3.36 1.35-.77 2.94-1.16 4.76-1.16 1.92 0 3.69.4 5.31 1.2-.11.26-.99 2.3-1.1 2.55-.63-.29-1.3-.56-2.01-.79a7.41 7.41 0 00-2.22-.33" id="F"/><path d="M564.48 81.91h-10.77v-1.86l7.17-10.02h-6.73v-2.31h10.12v2.11l-7.02 9.77h7.23v2.31z" id="G"/><path d="M572.72 69.75c-.96 0-1.72.3-2.3.91-.58.61-.92 1.49-1.03 2.66h6.44c-.02-1.17-.3-2.06-.85-2.67-.55-.6-1.3-.9-2.26-.9m.55 12.42c-2.2 0-3.93-.64-5.17-1.93-1.25-1.29-1.87-3.06-1.87-5.32 0-2.32.58-4.14 1.73-5.47 1.16-1.32 2.74-1.98 4.76-1.98 1.88 0 3.35.56 4.44 1.7 1.09 1.14 1.63 2.71 1.63 4.7v1.63h-9.45c.04 1.38.41 2.43 1.11 3.17.7.74 1.69 1.11 2.96 1.11.84 0 1.62-.08 2.35-.23.72-.16 1.5-.42 2.33-.79v2.45c-.74.35-1.48.6-2.24.74-.75.15-1.61.22-2.58.22" id="H"/><path d="M587.92 82.17c-2.15 0-3.78-.63-4.89-1.88-1.12-1.25-1.68-3.05-1.68-5.4 0-2.38.59-4.22 1.75-5.5 1.17-1.28 2.86-1.92 5.07-1.92 1.49 0 2.84.27 4.04.83-.09.24-.82 2.18-.91 2.43-1.28-.5-2.33-.75-3.16-.75-2.46 0-3.68 1.63-3.68 4.89 0 1.59.3 2.79.91 3.59.62.8 1.51 1.19 2.69 1.19 1.35 0 2.62-.33 3.81-1v2.63c-.54.32-1.11.55-1.72.68-.61.14-1.36.21-2.23.21" id="I"/><path d="M607.45 81.91h-3.03v-8.72c0-1.1-.22-1.91-.66-2.45-.44-.54-1.14-.81-2.1-.81-1.27 0-2.2.38-2.79 1.13-.59.76-.89 2.03-.89 3.81v7.04h-3.02V61.95h3.02v5.07c0 .81-.05 1.68-.16 2.6h.2c.41-.68.98-1.21 1.71-1.59.73-.38 1.58-.56 2.56-.56 3.44 0 5.16 1.73 5.16 5.19v9.25z" id="J"/><path d="M466.7 105.59c-1.05-3.07-1.64-4.77-1.76-5.11-.13-.34-.3-.88-.53-1.62-.23-.73-.38-1.27-.47-1.61-.23 1.05-.57 2.2-1.01 3.45-.12.33-.68 1.96-1.7 4.89h5.47zm2.68 7.85l-1.87-5.21h-7.17l-1.84 5.21h-3.23l7.01-18.83h3.34l7.02 18.83h-3.26z" id="K"/><path d="M480.36 113.7c-2.15 0-3.78-.63-4.89-1.88-1.12-1.26-1.68-3.05-1.68-5.4 0-2.38.59-4.22 1.75-5.5 1.17-1.29 2.86-1.93 5.07-1.93 1.49 0 2.84.28 4.04.84l-.91 2.42c-1.28-.49-2.33-.74-3.16-.74-2.45 0-3.68 1.63-3.68 4.89 0 1.59.3 2.78.92 3.58.61.8 1.5 1.2 2.68 1.2 1.35 0 2.62-.33 3.82-1v2.63a6 6 0 01-1.73.68c-.61.14-1.36.21-2.23.21" id="L"/><path d="M492.08 111.39c1.09 0 1.98-.31 2.64-.92.66-.61.99-1.47.99-2.57v-1.23c-1.09.04-1.7.07-1.82.07-1.42.05-2.45.29-3.1.72-.65.42-.97 1.07-.97 1.94 0 .63.19 1.12.57 1.47.37.34.94.52 1.69.52m4.49 2.05l-.6-1.98h-.1c-.69.87-1.38 1.46-2.07 1.77-.69.31-1.58.47-2.67.47-1.39 0-2.48-.38-3.26-1.13-.79-.75-1.18-1.82-1.18-3.2 0-1.46.55-2.56 1.63-3.31 1.09-.74 2.74-1.15 4.97-1.22.16 0 .98-.03 2.45-.07v-.76c0-.91-.21-1.58-.64-2.03-.42-.45-1.08-.68-1.97-.68-.72 0-1.42.11-2.09.32-.67.22-1.31.47-1.92.76l-.98-2.16c.77-.4 1.61-.7 2.53-.91.91-.21 1.78-.32 2.59-.32 1.81 0 3.17.4 4.09 1.18.92.79 1.38 2.03 1.38 3.71v9.56h-2.16z" id="M"/><path d="M508.42 111.26c1.24 0 2.14-.35 2.7-1.05.57-.69.86-1.82.88-3.39v-.42c0-1.79-.29-3.06-.88-3.81-.58-.76-1.49-1.13-2.73-1.13-1.06 0-1.88.43-2.45 1.29-.57.86-.86 2.08-.86 3.67 0 1.58.28 2.78.83 3.6.56.83 1.39 1.24 2.51 1.24m-.81 2.44c-1.77 0-3.15-.64-4.14-1.93-1-1.28-1.49-3.08-1.49-5.4 0-2.33.5-4.14 1.5-5.43 1.01-1.3 2.4-1.95 4.18-1.95 1.86 0 3.28.69 4.26 2.07h.15c-.14-1.02-.22-1.82-.22-2.41v-5.17h3.03v19.96h-2.36l-.52-1.86h-.15c-.96 1.41-2.38 2.12-4.24 2.12" id="N"/><path d="M524.69 101.28c-.96 0-1.73.3-2.31.91-.57.6-.92 1.49-1.03 2.65h6.44c-.01-1.17-.3-2.06-.84-2.66-.55-.6-1.3-.9-2.26-.9m.55 12.42c-2.21 0-3.93-.65-5.18-1.93-1.24-1.29-1.87-3.06-1.87-5.32 0-2.32.58-4.14 1.74-5.47 1.15-1.32 2.74-1.99 4.76-1.99 1.87 0 3.35.57 4.44 1.71 1.08 1.14 1.63 2.7 1.63 4.7v1.63h-9.46c.04 1.37.41 2.43 1.12 3.17.7.74 1.69 1.11 2.96 1.11.84 0 1.62-.08 2.34-.24a13 13 0 002.33-.78v2.44c-.74.36-1.48.6-2.23.75-.75.14-1.61.22-2.58.22" id="O"/><path d="M546.06 113.44h-3.02v-8.75c0-1.09-.21-1.9-.62-2.43-.41-.54-1.05-.8-1.92-.8-1.17 0-2.02.37-2.56 1.13-.55.76-.82 2.02-.82 3.78v7.07h-3.01V99.25h2.36l.42 1.86h.16c.39-.68.96-1.2 1.71-1.56.75-.37 1.57-.56 2.47-.56 2.18 0 3.62.75 4.33 2.24h.21c.42-.71 1.01-1.25 1.77-1.65.76-.39 1.63-.59 2.62-.59 1.69 0 2.93.43 3.7 1.29.77.85 1.16 2.16 1.16 3.91v9.25h-3.01v-8.75c0-1.09-.21-1.9-.63-2.43-.41-.54-1.06-.8-1.93-.8-1.17 0-2.03.36-2.57 1.09-.54.73-.82 1.86-.82 3.37v7.52z" id="P"/><path d="M556.69 99.25h3.28c1.74 4.83 2.7 7.51 2.89 8.04.44 1.15.73 2.23.87 3.24h.1c.08-.47.22-1.04.43-1.71.2-.68 1.29-3.86 3.26-9.57h3.26c-3.64 9.65-5.67 15-6.07 16.08-1.1 2.95-2.95 4.42-5.52 4.42-.67 0-1.32-.07-1.95-.22v-2.38c.45.1.97.15 1.55.15 1.46 0 2.48-.84 3.07-2.53.03-.08.21-.53.53-1.33l-5.7-14.19z" id="Q"/><path d="M582.02 106.32c0 3.28 1.21 4.91 3.63 4.91 2.39 0 3.59-1.63 3.59-4.91 0-3.24-1.2-4.86-3.62-4.86-1.26 0-2.18.42-2.75 1.25-.57.84-.85 2.04-.85 3.61m10.33 0c0 2.32-.6 4.13-1.79 5.43-1.19 1.3-2.84 1.95-4.96 1.95-1.33 0-2.5-.3-3.52-.9-1.02-.6-1.8-1.46-2.35-2.58-.54-1.12-.82-2.42-.82-3.9 0-2.3.59-4.1 1.77-5.39 1.18-1.29 2.85-1.94 4.99-1.94 2.06 0 3.68.66 4.88 1.99 1.2 1.32 1.8 3.1 1.8 5.34" id="R"/><path d="M602.7 101.53h-3.47v11.91h-3.03v-11.91h-2.33v-1.41l2.33-.92v-.93c0-1.67.4-2.91 1.18-3.72.79-.81 1.99-1.22 3.61-1.22 1.06 0 2.1.18 3.13.53-.08.23-.71 2.06-.79 2.28-.75-.24-1.46-.36-2.13-.36-.69 0-1.19.22-1.5.64-.31.42-.47 1.06-.47 1.91v.92h3.47v2.28z" id="S"/><path d="M623.07 108.35c0 1.67-.6 2.97-1.81 3.92-1.2.95-2.87 1.43-4.99 1.43s-3.86-.33-5.21-.99v-2.9c.86.4 1.77.72 2.73.95.96.23 1.86.35 2.69.35 1.21 0 2.11-.24 2.69-.7.57-.46.86-1.08.86-1.86 0-.7-.26-1.29-.79-1.78-.54-.49-1.63-1.07-3.29-1.73-1.71-.7-2.92-1.49-3.62-2.38-.7-.89-1.05-1.96-1.05-3.21 0-1.56.56-2.79 1.67-3.69 1.11-.9 2.6-1.35 4.48-1.35 1.79 0 3.58.4 5.36 1.18-.1.25-.88 2.25-.97 2.51-1.67-.71-3.16-1.06-4.47-1.06-.99 0-1.74.22-2.26.65-.51.43-.77 1-.77 1.71 0 .49.1.91.31 1.26.2.34.54.67 1.01.98.47.3 1.32.71 2.54 1.22 1.38.57 2.39 1.1 3.03 1.6.64.49 1.11 1.06 1.41 1.68.3.62.45 1.36.45 2.21" id="T"/><path d="M632.18 113.7c-2.15 0-3.78-.63-4.89-1.88-1.12-1.26-1.68-3.05-1.68-5.4 0-2.38.58-4.22 1.75-5.5 1.17-1.29 2.86-1.93 5.07-1.93 1.49 0 2.84.28 4.04.84-.09.24-.82 2.18-.92 2.42-1.27-.49-2.32-.74-3.15-.74-2.46 0-3.68 1.63-3.68 4.89 0 1.59.3 2.78.92 3.58.61.8 1.5 1.2 2.68 1.2 1.35 0 2.62-.33 3.81-1v2.63c-.54.32-1.11.54-1.72.68-.61.14-1.36.21-2.23.21" id="U"/><path d="M642.21 113.44h-3.02V99.25h3.02v14.19zm-3.2-17.95c0-.54.15-.95.45-1.25.29-.29.71-.43 1.26-.43.53 0 .94.14 1.24.43.29.3.44.71.44 1.25 0 .51-.15.92-.44 1.21-.3.3-.71.44-1.24.44-.55 0-.97-.14-1.26-.44-.3-.29-.45-.7-.45-1.21" id="V"/><path d="M651.96 101.28c-.95 0-1.72.3-2.3.91-.57.6-.92 1.49-1.03 2.65h6.44c-.02-1.17-.3-2.06-.85-2.66-.54-.6-1.3-.9-2.26-.9m.56 12.42c-2.21 0-3.94-.65-5.18-1.93-1.24-1.29-1.87-3.06-1.87-5.32 0-2.32.58-4.14 1.74-5.47 1.15-1.32 2.74-1.99 4.75-1.99 1.88 0 3.36.57 4.44 1.71 1.09 1.14 1.63 2.7 1.63 4.7v1.63h-9.45c.04 1.37.41 2.43 1.11 3.17.7.74 1.69 1.11 2.97 1.11.84 0 1.62-.08 2.34-.24a13 13 0 002.33-.78v2.44c-.74.36-1.48.6-2.23.75-.76.14-1.62.22-2.58.22" id="W"/><path d="M673.87 113.44h-3.03v-8.73c0-1.09-.22-1.91-.66-2.45-.44-.53-1.14-.8-2.1-.8-1.27 0-2.21.37-2.8 1.13-.59.75-.88 2.01-.88 3.78v7.07h-3.02V99.25h2.36l.43 1.86h.15c.43-.68 1.04-1.2 1.82-1.56.79-.37 1.66-.56 2.62-.56 3.41 0 5.11 1.73 5.11 5.2v9.25z" id="X"/><path d="M683.65 113.7c-2.15 0-3.78-.63-4.9-1.88-1.12-1.26-1.67-3.05-1.67-5.4 0-2.38.58-4.22 1.75-5.5 1.17-1.29 2.85-1.93 5.06-1.93 1.5 0 2.84.28 4.04.84l-.91 2.42c-1.28-.49-2.33-.74-3.16-.74-2.45 0-3.68 1.63-3.68 4.89 0 1.59.31 2.78.92 3.58.61.8 1.51 1.2 2.69 1.2 1.34 0 2.61-.33 3.81-1v2.63a6 6 0 01-1.73.68c-.61.14-1.35.21-2.22.21" id="Y"/><path d="M696.26 101.28c-.96 0-1.73.3-2.3.91-.58.6-.93 1.49-1.04 2.65h6.44c-.01-1.17-.3-2.06-.84-2.66-.55-.6-1.3-.9-2.26-.9m.55 12.42c-2.21 0-3.93-.65-5.18-1.93-1.24-1.29-1.86-3.06-1.86-5.32 0-2.32.57-4.14 1.73-5.47 1.15-1.32 2.74-1.99 4.76-1.99 1.87 0 3.35.57 4.44 1.71 1.09 1.14 1.63 2.7 1.63 4.7v1.63h-9.46c.05 1.37.42 2.43 1.12 3.17.7.74 1.69 1.11 2.96 1.11.84 0 1.62-.08 2.34-.24.73-.16 1.5-.42 2.33-.78v2.44c-.73.36-1.48.6-2.23.75-.75.14-1.61.22-2.58.22" id="Z"/><path d="M715.29 109.4c0 1.38-.5 2.45-1.51 3.19-1.01.74-2.45 1.11-4.34 1.11-1.89 0-3.4-.29-4.55-.86v-2.61c1.67.77 3.22 1.16 4.66 1.16 1.85 0 2.78-.56 2.78-1.68 0-.36-.1-.66-.31-.9-.2-.24-.54-.49-1.01-.75-.47-.25-1.12-.54-1.96-.87-1.64-.63-2.74-1.26-3.32-1.9-.58-.63-.87-1.45-.87-2.46 0-1.21.49-2.16 1.47-2.83.98-.67 2.31-1.01 4-1.01 1.67 0 3.25.34 4.73 1.02-.09.22-.87 2.04-.97 2.27-1.53-.64-2.82-.95-3.86-.95-1.59 0-2.39.45-2.39 1.36 0 .44.21.82.62 1.13.42.3 1.32.73 2.72 1.27 1.17.45 2.02.87 2.55 1.24.53.38.92.81 1.18 1.3.26.5.38 1.08.38 1.77" id="aa"/><path d="M261.94 114.66l38.73-67.27h-36.09l3.63-16.2h61.52l-37.39 67.28h37.31v16.19h-67.71z" id="ab"/><path d="M376.38 116.54c-23.2 0-38.18-15.15-38.18-38.59V31.19h20.75v48.1c0 12.43 6.52 19.85 17.43 19.85 11 0 17.57-7.42 17.57-19.85v-48.1h20.62v46.76c0 23.44-14.99 38.59-38.19 38.59" id="ac"/><path d="M199.42 114.66V31.19h59.66l-3.43 16.2h-35.88v22.53h30.9l-3.48 15.53h-27.42v29.21h-20.35z" id="ad"/></defs><use xlink:href="#a" fill="#12326e"/><use xlink:href="#a" fill-opacity="0" stroke="#000" stroke-opacity="0"/><use xlink:href="#b" fill="#12326e"/><use xlink:href="#b" fill-opacity="0" stroke="#000" stroke-opacity="0"/><use xlink:href="#c" fill="#12326e"/><use xlink:href="#c" fill-opacity="0" stroke="#000" stroke-opacity="0"/><use xlink:href="#d" fill="#0071b9"/><use xlink:href="#d" fill-opacity="0" stroke="#000" stroke-opacity="0"/><use xlink:href="#e" fill="#12326e"/><use xlink:href="#e" fill-opacity="0" stroke="#000" stroke-opacity="0"/><use xlink:href="#f" fill="#12326e"/><use xlink:href="#f" fill-opacity="0" stroke="#000" stroke-opacity="0"/><use xlink:href="#g" fill="#12326e"/><use xlink:href="#g" fill-opacity="0" stroke="#000" stroke-opacity="0"/><use xlink:href="#h" fill="#12326e"/><use xlink:href="#h" fill-opacity="0" stroke="#000" stroke-opacity="0"/><use xlink:href="#i" fill="#12326e"/><use xlink:href="#i" fill-opacity="0" stroke="#000" stroke-opacity="0"/><use xlink:href="#j" fill="#12326e"/><use xlink:href="#j" fill-opacity="0" stroke="#000" stroke-opacity="0"/><use xlink:href="#k" fill="#12326e"/><use xlink:href="#k" fill-opacity="0" stroke="#000" stroke-opacity="0"/><use xlink:href="#l" fill="#12326e"/><use xlink:href="#l" fill-opacity="0" stroke="#000" stroke-opacity="0"/><use xlink:href="#m" fill="#12326e"/><use xlink:href="#m" fill-opacity="0" stroke="#000" stroke-opacity="0"/><use xlink:href="#n" fill="#12326e"/><use xlink:href="#n" fill-opacity="0" stroke="#000" stroke-opacity="0"/><use xlink:href="#o" fill="#12326e"/><use xlink:href="#o" fill-opacity="0" stroke="#000" stroke-opacity="0"/><use xlink:href="#p" fill="#12326e"/><use xlink:href="#p" fill-opacity="0" stroke="#000" stroke-opacity="0"/><use xlink:href="#q" fill="#12326e"/><use xlink:href="#q" fill-opacity="0" stroke="#000" stroke-opacity="0"/><use xlink:href="#r" fill="#12326e"/><use xlink:href="#r" fill-opacity="0" stroke="#000" stroke-opacity="0"/><use xlink:href="#s" fill="#12326e"/><use xlink:href="#s" fill-opacity="0" stroke="#000" stroke-opacity="0"/><use xlink:href="#t" fill="#12326e"/><use xlink:href="#t" fill-opacity="0" stroke="#000" stroke-opacity="0"/><use xlink:href="#u" fill="#12326e"/><use xlink:href="#u" fill-opacity="0" stroke="#000" stroke-opacity="0"/><use xlink:href="#v" fill="#12326e"/><use xlink:href="#v" fill-opacity="0" stroke="#000" stroke-opacity="0"/><use xlink:href="#w" fill="#12326e"/><use xlink:href="#w" fill-opacity="0" stroke="#000" stroke-opacity="0"/><use xlink:href="#x" fill="#12326e"/><use xlink:href="#x" fill-opacity="0" stroke="#000" stroke-opacity="0"/><use xlink:href="#y" fill="#12326e"/><use xlink:href="#y" fill-opacity="0" stroke="#000" stroke-opacity="0"/><use xlink:href="#z" fill="#12326e"/><use xlink:href="#z" fill-opacity="0" stroke="#000" stroke-opacity="0"/><use xlink:href="#A" fill="#12326e"/><use xlink:href="#A" fill-opacity="0" stroke="#000" stroke-opacity="0"/><use xlink:href="#B" fill="#12326e"/><use xlink:href="#B" fill-opacity="0" stroke="#000" stroke-opacity="0"/><g><use xlink:href="#C" fill="#12326e"/><use xlink:href="#C" fill-opacity="0" stroke="#000" stroke-opacity="0"/></g><g><use xlink:href="#D" fill="#12326e"/><use xlink:href="#D" fill-opacity="0" stroke="#000" stroke-opacity="0"/></g><g><use xlink:href="#E" fill="#12326e"/><use xlink:href="#E" fill-opacity="0" stroke="#000" stroke-opacity="0"/></g><g><use xlink:href="#F" fill="#12326e"/><use xlink:href="#F" fill-opacity="0" stroke="#000" stroke-opacity="0"/></g><g><use xlink:href="#G" fill="#12326e"/><use xlink:href="#G" fill-opacity="0" stroke="#000" stroke-opacity="0"/></g><g><use xlink:href="#H" fill="#12326e"/><use xlink:href="#H" fill-opacity="0" stroke="#000" stroke-opacity="0"/></g><g><use xlink:href="#I" fill="#12326e"/><use xlink:href="#I" fill-opacity="0" stroke="#000" stroke-opacity="0"/></g><g><use xlink:href="#J" fill="#12326e"/><use xlink:href="#J" fill-opacity="0" stroke="#000" stroke-opacity="0"/></g><g><use xlink:href="#K" fill="#12326e"/><use xlink:href="#K" fill-opacity="0" stroke="#000" stroke-opacity="0"/></g><g><use xlink:href="#L" fill="#12326e"/><use xlink:href="#L" fill-opacity="0" stroke="#000" stroke-opacity="0"/></g><g><use xlink:href="#M" fill="#12326e"/><use xlink:href="#M" fill-opacity="0" stroke="#000" stroke-opacity="0"/></g><g><use xlink:href="#N" fill="#12326e"/><use xlink:href="#N" fill-opacity="0" stroke="#000" stroke-opacity="0"/></g><g><use xlink:href="#O" fill="#12326e"/><use xlink:href="#O" fill-opacity="0" stroke="#000" stroke-opacity="0"/></g><g><use xlink:href="#P" fill="#12326e"/><use xlink:href="#P" fill-opacity="0" stroke="#000" stroke-opacity="0"/></g><g><use xlink:href="#Q" fill="#12326e"/><use xlink:href="#Q" fill-opacity="0" stroke="#000" stroke-opacity="0"/></g><g><use xlink:href="#R" fill="#12326e"/><use xlink:href="#R" fill-opacity="0" stroke="#000" stroke-opacity="0"/></g><g><use xlink:href="#S" fill="#12326e"/><use xlink:href="#S" fill-opacity="0" stroke="#000" stroke-opacity="0"/></g><g><use xlink:href="#T" fill="#12326e"/><use xlink:href="#T" fill-opacity="0" stroke="#000" stroke-opacity="0"/></g><g><use xlink:href="#U" fill="#12326e"/><use xlink:href="#U" fill-opacity="0" stroke="#000" stroke-opacity="0"/></g><g><use xlink:href="#V" fill="#12326e"/><use xlink:href="#V" fill-opacity="0" stroke="#000" stroke-opacity="0"/></g><g><use xlink:href="#W" fill="#12326e"/><use xlink:href="#W" fill-opacity="0" stroke="#000" stroke-opacity="0"/></g><g><use xlink:href="#X" fill="#12326e"/><use xlink:href="#X" fill-opacity="0" stroke="#000" stroke-opacity="0"/></g><g><use xlink:href="#Y" fill="#12326e"/><use xlink:href="#Y" fill-opacity="0" stroke="#000" stroke-opacity="0"/></g><g><use xlink:href="#Z" fill="#12326e"/><use xlink:href="#Z" fill-opacity="0" stroke="#000" stroke-opacity="0"/></g><g><use xlink:href="#aa" fill="#12326e"/><use xlink:href="#aa" fill-opacity="0" stroke="#000" stroke-opacity="0"/></g><g><use xlink:href="#ab" fill="#12326e"/><use xlink:href="#ab" fill-opacity="0" stroke="#000" stroke-opacity="0"/></g><g><use xlink:href="#ac" fill="#12326e"/><use xlink:href="#ac" fill-opacity="0" stroke="#000" stroke-opacity="0"/></g><g><use xlink:href="#ad" fill="#12326e"/><use xlink:href="#ad" fill-opacity="0" stroke="#000" stroke-opacity="0"/></g></svg>